<svg width="48" height="48" viewBox="0 0 48 48" fill="none" xmlns="http://www.w3.org/2000/svg">
<g clip-path="url(#clip0_1084_6432)">
<rect width="48" height="48" rx="24" fill="#444444"/>
<circle cx="24" cy="24" r="19" fill="white"/>
<path d="M30.4675 21.6586C30.1361 21.6573 29.8081 21.7259 29.5045 21.8602C29.2009 21.9945 28.9284 22.1914 28.7044 22.4384C28.4804 22.6854 28.3098 22.977 28.2036 23.2945C28.0975 23.612 28.0581 23.9485 28.0879 24.2823H32.9899C33.0216 23.9359 32.9786 23.5868 32.8641 23.2588C32.7495 22.9309 32.5661 22.6319 32.3263 22.3826C32.0866 22.1332 31.7963 21.9394 31.4754 21.8144C31.1545 21.6894 30.8107 21.6363 30.4675 21.6586ZM17.9269 24.3304H15V29H17.3796C19.7592 29 20.8063 28.2057 20.8063 26.593C20.8063 24.9803 19.7116 24.3304 17.9269 24.3304ZM19.9972 20.046C19.9972 18.7702 19.1643 18 17.7366 18H15V22.1882H17.0227C19.1405 22.1882 19.9972 21.4179 19.9972 20.046Z" fill="#444444"/>
<path d="M24 0C19.2533 0 14.6131 1.40758 10.6663 4.04473C6.71954 6.68188 3.6434 10.4302 1.8269 14.8156C0.0103988 19.201 -0.464881 24.0266 0.461164 28.6822C1.38721 33.3377 3.67299 37.6141 7.02945 40.9706C10.3859 44.327 14.6623 46.6128 19.3178 47.5388C23.9734 48.4649 28.799 47.9896 33.1844 46.1731C37.5698 44.3566 41.3181 41.2805 43.9553 37.3337C46.5924 33.3869 48 28.7467 48 24C48 20.8483 47.3792 17.7274 46.1731 14.8156C44.967 11.9038 43.1992 9.25804 40.9706 7.02944C38.742 4.80083 36.0962 3.033 33.1844 1.82689C30.2726 0.620778 27.1517 0 24 0ZM18.48 31.68H12V16.08H18.48C21.288 16.08 23.136 17.544 23.136 19.92C23.1691 20.7182 22.9167 21.5021 22.4241 22.1311C21.9315 22.76 21.2309 23.1929 20.448 23.352C20.9442 23.3635 21.4328 23.4761 21.8839 23.683C22.335 23.8898 22.7392 24.1865 23.0717 24.555C23.4042 24.9234 23.658 25.3558 23.8177 25.8258C23.9773 26.2957 24.0393 26.7933 24 27.288C24 30.072 21.6 31.68 18.48 31.68ZM27 17.28H34.2V18.48H27V17.28ZM36 26.52H28.08V26.856C28.0387 27.2207 28.0761 27.59 28.1896 27.939C28.3031 28.288 28.4901 28.6087 28.738 28.8793C28.9859 29.15 29.289 29.3643 29.6267 29.508C29.9645 29.6516 30.3291 29.7212 30.696 29.712C31.2112 29.792 31.7379 29.6831 32.179 29.4052C32.6201 29.1273 32.9458 28.6992 33.096 28.2H36C35.7414 29.352 35.0673 30.3684 34.1065 31.0547C33.1457 31.7409 31.9657 32.049 30.792 31.92C30.0419 31.9957 29.2843 31.9062 28.5725 31.6577C27.8607 31.4091 27.2121 31.0076 26.6721 30.4814C26.1322 29.9553 25.7142 29.3171 25.4474 28.612C25.1806 27.9068 25.0716 27.1518 25.128 26.4V25.344C25.077 24.6155 25.1842 23.8846 25.4422 23.2015C25.7002 22.5183 26.1029 21.899 26.6227 21.3861C27.1424 20.8732 27.767 20.4787 28.4535 20.2298C29.14 19.9809 29.8723 19.8834 30.6 19.944C31.3253 19.8975 32.0522 20.0069 32.7317 20.265C33.4112 20.523 34.0275 20.9236 34.5392 21.4398C35.0508 21.956 35.4459 22.5758 35.6979 23.2576C35.9499 23.9393 36.0529 24.6671 36 25.392V26.52Z" fill="#444444"/>
</g>
<defs>
<clipPath id="clip0_1084_6432">
<rect width="48" height="48" rx="24" fill="white"/>
</clipPath>
</defs>
</svg>
