<svg width="50" height="50" viewBox="0 0 50 50" fill="none" xmlns="http://www.w3.org/2000/svg">
<rect x="0.5" y="0.5" width="49" height="49" rx="24.5" fill="white"/>
<rect x="0.5" y="0.5" width="49" height="49" rx="24.5" stroke="#6945FF"/>
<path d="M31.375 13H18.625C15.5184 13 13 15.5184 13 18.625V31.375C13 34.4816 15.5184 37 18.625 37H31.375C34.4816 37 37 34.4816 37 31.375V18.625C37 15.5184 34.4816 13 31.375 13Z" fill="white"/>
<mask id="mask0_1421_10874" style="mask-type:luminance" maskUnits="userSpaceOnUse" x="15" y="17" width="20" height="16">
<path d="M15.625 17.7812H34.375V32.3059H15.625V17.7812Z" fill="white"/>
</mask>
<g mask="url(#mask0_1421_10874)">
<path d="M31.4976 19.0746C30.2819 18.5167 28.9991 18.1188 27.6811 17.8908C27.6691 17.8887 27.6568 17.8903 27.6458 17.8955C27.6348 17.9007 27.6257 17.9092 27.6198 17.9199C27.455 18.213 27.2723 18.5955 27.1446 18.896C25.7033 18.6802 24.2696 18.6802 22.858 18.896C22.7302 18.5887 22.541 18.213 22.3754 17.9199C22.3693 17.9094 22.3602 17.901 22.3492 17.8958C22.3383 17.8907 22.326 17.8889 22.314 17.8908C20.9959 18.1183 19.713 18.5162 18.4975 19.0746C18.4872 19.0791 18.4784 19.0866 18.4724 19.0962C16.0417 22.7277 15.3758 26.2699 15.7025 29.7683C15.7045 29.7856 15.7132 29.8014 15.7268 29.8122C17.3305 30.99 18.8841 31.705 20.4087 32.1789C20.4206 32.1824 20.4332 32.1822 20.445 32.1784C20.4567 32.1745 20.4671 32.1672 20.4745 32.1573C20.8352 31.6648 21.1567 31.1455 21.4324 30.5994C21.4362 30.5919 21.4383 30.5837 21.4387 30.5753C21.4391 30.567 21.4378 30.5586 21.4347 30.5508C21.4316 30.543 21.4269 30.5359 21.4209 30.5301C21.4149 30.5242 21.4077 30.5197 21.3998 30.5168C20.8898 30.3233 20.4043 30.0875 19.9373 29.8197C19.9287 29.8147 19.9216 29.8076 19.9165 29.7992C19.9113 29.7908 19.9083 29.7812 19.9077 29.7714C19.9071 29.7615 19.909 29.7517 19.9131 29.7427C19.9172 29.7337 19.9235 29.7259 19.9313 29.7199C20.0299 29.6463 20.1267 29.5704 20.2218 29.4923C20.2301 29.4854 20.2402 29.481 20.2509 29.4796C20.2616 29.4781 20.2725 29.4797 20.2823 29.4841C23.351 30.8851 26.673 30.8851 29.7053 29.4841C29.7153 29.4794 29.7263 29.4776 29.7371 29.479C29.748 29.4803 29.7583 29.4847 29.7668 29.4916C29.8619 29.5701 29.959 29.6462 30.0579 29.7199C30.0658 29.7259 30.0721 29.7336 30.0763 29.7426C30.0805 29.7515 30.0824 29.7613 30.0819 29.7712C30.0814 29.781 30.0785 29.7906 30.0734 29.7991C30.0683 29.8075 30.0612 29.8146 30.0528 29.8197C29.5855 30.0926 29.0959 30.3255 28.5894 30.5161C28.5816 30.5191 28.5745 30.5237 28.5685 30.5297C28.5626 30.5357 28.558 30.5428 28.555 30.5507C28.552 30.5585 28.5507 30.5669 28.5511 30.5753C28.5516 30.5837 28.5538 30.5919 28.5577 30.5994C28.8381 31.1412 29.158 31.6616 29.5147 32.1566C29.522 32.1667 29.5322 32.1742 29.544 32.1782C29.5558 32.1822 29.5685 32.1825 29.5805 32.1789C31.1125 31.705 32.6661 30.99 34.2698 29.8122C34.2767 29.8071 34.2824 29.8006 34.2866 29.7932C34.2908 29.7858 34.2934 29.7776 34.2942 29.7691C34.6852 25.7246 33.6394 22.2113 31.5219 19.0969C31.5168 19.0868 31.5081 19.0789 31.4976 19.0746ZM21.8906 27.6382C20.9667 27.6382 20.2055 26.7901 20.2055 25.7484C20.2055 24.7067 20.952 23.8586 21.8906 23.8586C22.8366 23.8586 23.5904 24.7142 23.5756 25.7484C23.5756 26.7901 22.8292 27.6382 21.8906 27.6382ZM28.1209 27.6382C27.197 27.6382 26.4358 26.7901 26.4358 25.7484C26.4358 24.7067 27.1823 23.8586 28.1209 23.8586C29.0668 23.8586 29.8207 24.7142 29.8059 25.7484C29.8059 26.7901 29.0668 27.6382 28.1209 27.6382Z" fill="#5865F2"/>
</g>
</svg>
