<svg width="50" height="50" viewBox="0 0 50 50" fill="none" xmlns="http://www.w3.org/2000/svg">
<rect x="0.5" y="0.5" width="49" height="49" rx="24.5" fill="white"/>
<rect x="0.5" y="0.5" width="49" height="49" rx="24.5" stroke="#6945FF"/>
<path d="M27.6855 24.5125L19.3838 23.05V33.8568C19.3837 33.9743 19.4068 34.0906 19.4517 34.1991C19.4967 34.3076 19.5626 34.4062 19.6457 34.4892C19.7289 34.5722 19.8275 34.6379 19.9361 34.6827C20.0447 34.7275 20.1611 34.7503 20.2785 34.75H34.6035C34.7211 34.7505 34.8376 34.7278 34.9464 34.6831C35.0552 34.6384 35.154 34.5727 35.2373 34.4897C35.3206 34.4067 35.3867 34.3081 35.4317 34.1994C35.4768 34.0908 35.4999 33.9744 35.4998 33.8568V29.875L27.6855 24.5125Z" fill="#185C37"/>
<path d="M27.6855 15.25H20.2785C20.1611 15.2497 20.0447 15.2726 19.9361 15.3174C19.8275 15.3621 19.7289 15.4279 19.6457 15.5109C19.5626 15.5939 19.4967 15.6924 19.4517 15.801C19.4068 15.9095 19.3837 16.0258 19.3838 16.1433V20.125L27.6855 25L32.0813 26.4625L35.4998 25V20.125L27.6855 15.25Z" fill="#21A366"/>
<path d="M19.3838 20.125H27.6855V25H19.3838V20.125Z" fill="#107C41"/>
<path opacity="0.1" d="M25.3253 19.1499H19.3838V31.3374H25.3253C25.562 31.3362 25.7888 31.2418 25.9564 31.0746C26.124 30.9074 26.219 30.6809 26.2208 30.4442V20.0432C26.219 19.8064 26.124 19.5799 25.9564 19.4127C25.7888 19.2455 25.562 19.1511 25.3253 19.1499Z" fill="#444444"/>
<path opacity="0.2" d="M24.837 19.6375H19.3838V31.825H24.837C25.0738 31.8238 25.3005 31.7294 25.4682 31.5622C25.6358 31.395 25.7308 31.1684 25.7325 30.9317V20.5307C25.7308 20.294 25.6358 20.0674 25.4682 19.9002C25.3005 19.733 25.0738 19.6386 24.837 19.6375Z" fill="#444444"/>
<path opacity="0.2" d="M24.837 19.6375H19.3838V30.85H24.837C25.0738 30.8488 25.3005 30.7544 25.4682 30.5872C25.6358 30.42 25.7308 30.1934 25.7325 29.9567V20.5307C25.7308 20.294 25.6358 20.0674 25.4682 19.9002C25.3005 19.733 25.0738 19.6386 24.837 19.6375Z" fill="#444444"/>
<path opacity="0.2" d="M24.3488 19.6375H19.3838V30.85H24.3488C24.5855 30.8488 24.8123 30.7544 24.9799 30.5872C25.1475 30.42 25.2425 30.1934 25.2443 29.9567V20.5307C25.2425 20.294 25.1475 20.0674 24.9799 19.9002C24.8123 19.733 24.5855 19.6386 24.3488 19.6375Z" fill="#444444"/>
<path d="M15.3955 19.6375H24.349C24.5862 19.6373 24.8137 19.7312 24.9816 19.8987C25.1496 20.0662 25.2441 20.2935 25.2445 20.5307V29.4692C25.2441 29.7064 25.1496 29.9337 24.9816 30.1012C24.8137 30.2687 24.5862 30.3627 24.349 30.3625H15.3955C15.278 30.3629 15.1615 30.34 15.0529 30.2953C14.9442 30.2506 14.8454 30.1848 14.7622 30.1018C14.679 30.0189 14.613 29.9202 14.568 29.8117C14.523 29.7031 14.4999 29.5867 14.5 29.4692V20.5307C14.4999 20.4132 14.523 20.2968 14.568 20.1882C14.613 20.0797 14.679 19.9811 14.7622 19.8981C14.8454 19.8151 14.9442 19.7493 15.0529 19.7046C15.1615 19.6599 15.278 19.6371 15.3955 19.6375Z" fill="url(#paint0_linear_1421_10856)"/>
<path d="M17.2754 27.9047L19.1586 24.9917L17.4336 22.0952H18.8189L19.7601 23.95C19.8471 24.1255 19.9101 24.256 19.9386 24.343H19.9514C20.0129 24.2025 20.0779 24.066 20.1464 23.9335L21.1529 22.0982H22.4279L20.6586 24.9782L22.4729 27.907H21.1161L20.0286 25.8737C19.9783 25.7862 19.9354 25.6946 19.9004 25.6H19.8824C19.8506 25.6922 19.8083 25.7806 19.7564 25.8632L18.6366 27.9047H17.2754Z" fill="white"/>
<path d="M34.6043 15.25H27.6855V20.125H35.4998V16.1433C35.4999 16.0257 35.4768 15.9094 35.4318 15.8008C35.3868 15.6922 35.3208 15.5936 35.2376 15.5106C35.1544 15.4276 35.0556 15.3619 34.9469 15.3172C34.8383 15.2724 34.7218 15.2496 34.6043 15.25Z" fill="#33C481"/>
<path d="M27.6855 25H35.4998V29.875H27.6855V25Z" fill="#107C41"/>
<defs>
<linearGradient id="paint0_linear_1421_10856" x1="16.3705" y1="18.9355" x2="23.374" y2="31.0645" gradientUnits="userSpaceOnUse">
<stop stop-color="#18884F"/>
<stop offset="0.5" stop-color="#117E43"/>
<stop offset="1" stop-color="#0B6631"/>
</linearGradient>
</defs>
</svg>
