<svg width="50" height="50" viewBox="0 0 50 50" fill="none" xmlns="http://www.w3.org/2000/svg">
<rect x="0.5" y="0.5" width="49" height="49" rx="24.5" fill="white"/>
<rect x="0.5" y="0.5" width="49" height="49" rx="24.5" stroke="#6945FF"/>
<g clip-path="url(#clip0_1421_10915)">
<path d="M9.20825 27.518V24.0596H13.6547V23.8573H9.20825V20.7022H13.9359V20.5H9V27.7202H13.9775V27.518H9.20825ZM17.9867 22.5224L16.1436 24.8786L14.342 22.5225H14.0712L16.0186 25.0304L13.8837 27.7201H14.1337L16.1434 25.1819L18.1636 27.7201H18.4239L16.2788 25.0303L18.2365 22.5224L17.9867 22.5224ZM19.0488 29.5V26.2641H19.0696C19.1946 26.736 19.4411 27.1152 19.809 27.4017C20.1769 27.6882 20.6455 27.8315 21.2148 27.8315C21.5827 27.8315 21.909 27.7591 22.1936 27.6141C22.4782 27.4692 22.716 27.272 22.9069 27.0225C23.0978 26.7731 23.2436 26.4832 23.3443 26.1529C23.445 25.8225 23.4954 25.4753 23.4953 25.1113C23.4953 24.7203 23.4432 24.3596 23.3391 24.0293C23.2349 23.6989 23.0839 23.4124 22.8861 23.1697C22.6882 22.927 22.4487 22.7382 22.1676 22.6035C21.8864 22.4686 21.5688 22.4012 21.2148 22.4012C20.944 22.4012 20.6924 22.4399 20.4598 22.5175C20.2273 22.595 20.0208 22.7045 19.8403 22.8461C19.6587 22.9888 19.5007 23.1576 19.3716 23.3467C19.2397 23.5388 19.1391 23.7495 19.0696 23.9787H19.0488V22.5224H18.8406V29.5H19.0488ZM21.2148 27.6393C20.5623 27.6393 20.0381 27.4219 19.6424 26.9871C19.2467 26.5523 19.0488 25.927 19.0488 25.1112C19.0488 24.7741 19.0974 24.4539 19.1946 24.1506C19.2918 23.8472 19.4324 23.5809 19.6163 23.3517C19.8002 23.1225 20.0276 22.9405 20.2984 22.8056C20.5692 22.6708 20.8746 22.6034 21.2148 22.6033C21.5619 22.6033 21.8656 22.6708 22.1259 22.8056C22.3863 22.9405 22.6015 23.1242 22.7716 23.3567C22.9416 23.5893 23.0701 23.8556 23.1569 24.1556C23.2437 24.4556 23.287 24.7741 23.287 25.1112C23.287 25.4147 23.2471 25.7163 23.1672 26.0163C23.0874 26.3162 22.9642 26.5859 22.7976 26.8253C22.631 27.0646 22.4176 27.2601 22.1572 27.4118C21.8968 27.5635 21.5827 27.6393 21.2148 27.6393ZM24.6407 27.7202V24.7775C24.6407 24.4944 24.6824 24.218 24.7657 23.9483C24.849 23.6786 24.9774 23.441 25.151 23.2354C25.3246 23.0298 25.545 22.868 25.8123 22.75C26.0795 22.632 26.3971 22.5831 26.7651 22.6033V22.4011C26.4457 22.3944 26.1663 22.4281 25.9268 22.5022C25.6873 22.5764 25.4807 22.6775 25.3072 22.8056C25.1336 22.9337 24.9948 23.0837 24.8907 23.2556C24.7867 23.4273 24.7095 23.613 24.6616 23.8067H24.6407V22.5224H24.4325V27.7203L24.6407 27.7202ZM27.0254 25.1618H31.5031C31.517 24.8045 31.4805 24.4607 31.3937 24.1303C31.307 23.8 31.1682 23.5067 30.9772 23.2506C30.7863 22.9944 30.5399 22.7887 30.2379 22.6337C29.9359 22.4786 29.5766 22.4011 29.1601 22.4011C28.8616 22.4011 28.57 22.4618 28.2854 22.5832C28.0008 22.7045 27.7508 22.8814 27.5356 23.114C27.3204 23.3466 27.1469 23.6315 27.015 23.9686C26.8831 24.3057 26.8172 24.69 26.8171 25.1214C26.8171 25.5056 26.8622 25.8646 26.9525 26.1983C27.0427 26.532 27.1816 26.8219 27.369 27.068C27.5565 27.314 27.7978 27.5045 28.0928 27.6393C28.3878 27.7742 28.7435 27.8382 29.1601 27.8315C29.771 27.8315 30.2847 27.6646 30.7013 27.3309C31.1178 26.9972 31.3643 26.527 31.4406 25.9202H31.2324C31.1421 26.4933 30.9113 26.9231 30.5399 27.2095C30.1685 27.496 29.7016 27.6393 29.1392 27.6393C28.7575 27.6393 28.4346 27.5753 28.1708 27.4472C27.9071 27.3191 27.6919 27.1438 27.5252 26.9214C27.3586 26.6989 27.2354 26.4376 27.1556 26.1376C27.0757 25.8377 27.0323 25.5124 27.0254 25.1618ZM31.2948 24.9595H27.0254C27.0462 24.5955 27.1156 24.2685 27.2336 23.9787C27.3517 23.6887 27.5061 23.441 27.6971 23.2354C27.8879 23.0298 28.1101 22.8731 28.3635 22.7652C28.6169 22.6572 28.8894 22.6033 29.1809 22.6033C29.528 22.6033 29.8335 22.6657 30.0973 22.7905C30.3611 22.9152 30.5815 23.0854 30.7586 23.3011C30.9356 23.5169 31.0692 23.768 31.1594 24.0545C31.2497 24.341 31.2948 24.6427 31.2948 24.9595ZM35.8246 24.0596H36.0329C36.0329 23.4797 35.8593 23.0584 35.5123 22.7955C35.1651 22.5326 34.693 22.4011 34.096 22.4011C33.7628 22.4011 33.4816 22.4416 33.2525 22.5225C33.0234 22.6034 32.836 22.7079 32.6902 22.8359C32.5444 22.964 32.4403 23.1056 32.3778 23.2607C32.3153 23.4158 32.2841 23.5641 32.2841 23.7056C32.2841 23.9887 32.3361 24.2146 32.4403 24.3831C32.5444 24.5517 32.7076 24.6831 32.9297 24.7775C33.0824 24.8449 33.256 24.9056 33.4504 24.9596C33.6447 25.0135 33.8704 25.0708 34.1273 25.1314C34.3563 25.1855 34.5819 25.2394 34.8041 25.2932C35.0262 25.3472 35.2224 25.4197 35.3924 25.5106C35.5626 25.6017 35.7014 25.718 35.809 25.8596C35.9166 26.0012 35.9704 26.1865 35.9704 26.4157C35.9704 26.6382 35.9166 26.827 35.809 26.982C35.7023 27.1363 35.5619 27.2658 35.3977 27.3613C35.231 27.459 35.0453 27.5298 34.8406 27.5736C34.6358 27.6174 34.4362 27.6393 34.2418 27.6393C33.6101 27.6393 33.1258 27.5028 32.7891 27.2298C32.4525 26.9568 32.2841 26.527 32.2841 25.9404H32.0758C32.0758 26.5944 32.258 27.0731 32.6225 27.3764C32.987 27.6798 33.5268 27.8315 34.2418 27.8315C34.4709 27.8315 34.7017 27.8062 34.9343 27.7556C35.1668 27.7051 35.3751 27.6225 35.5591 27.5078C35.7414 27.3948 35.8946 27.2426 36.0068 27.063C36.1214 26.8809 36.1787 26.6584 36.1787 26.3955C36.1787 26.1461 36.1284 25.9438 36.0277 25.7887C35.927 25.6337 35.7951 25.5056 35.6319 25.4045C35.4688 25.3034 35.2848 25.2242 35.0801 25.1669C34.8741 25.1092 34.6675 25.0536 34.4604 25C34.2056 24.935 33.9504 24.871 33.6951 24.8079C33.4764 24.7539 33.2734 24.6899 33.0859 24.6157C32.9054 24.5415 32.7614 24.4354 32.6537 24.2972C32.5462 24.159 32.4924 23.9618 32.4924 23.7056C32.4924 23.6584 32.5063 23.5742 32.534 23.4528C32.5618 23.3314 32.6278 23.2084 32.7319 23.0837C32.836 22.959 32.9957 22.8477 33.2109 22.75C33.4261 22.6522 33.7211 22.6033 34.096 22.6033C34.3528 22.6033 34.5871 22.6303 34.7989 22.6843C35.0106 22.7382 35.1929 22.8242 35.3456 22.9421C35.4983 23.0601 35.6163 23.2101 35.6996 23.3921C35.783 23.5742 35.8246 23.7967 35.8246 24.0596ZM40.6459 24.0596H40.8542C40.8542 23.4797 40.6806 23.0584 40.3336 22.7955C39.9865 22.5326 39.5144 22.4012 38.9173 22.4011C38.5841 22.4011 38.303 22.4416 38.0739 22.5225C37.8448 22.6034 37.6573 22.7079 37.5116 22.8359C37.3657 22.964 37.2616 23.1056 37.1991 23.2607C37.1366 23.4158 37.1054 23.5641 37.1054 23.7056C37.1054 23.9887 37.1575 24.2146 37.2617 24.3831C37.3658 24.5517 37.5289 24.6831 37.7511 24.7775C37.9038 24.8449 38.0774 24.9056 38.2717 24.9596C38.4661 25.0135 38.6917 25.0708 38.9486 25.1314C39.1777 25.1855 39.4033 25.2394 39.6254 25.2932C39.8476 25.3472 40.0437 25.4197 40.2138 25.5106C40.3839 25.6017 40.5227 25.718 40.6303 25.8596C40.7379 26.0011 40.7917 26.1865 40.7917 26.4157C40.7917 26.6382 40.7379 26.827 40.6303 26.982C40.5236 27.1363 40.3832 27.2658 40.2191 27.3613C40.0524 27.459 39.8667 27.5298 39.6619 27.5736C39.4571 27.6174 39.2575 27.6393 39.0631 27.6393C38.4314 27.6393 37.9472 27.5028 37.6105 27.2298C37.2738 26.9568 37.1054 26.527 37.1054 25.9404H36.8972C36.8972 26.5944 37.0794 27.0731 37.4439 27.3764C37.8083 27.6798 38.348 27.8315 39.0631 27.8315C39.2922 27.8315 39.5231 27.8062 39.7556 27.7556C39.9881 27.7051 40.1964 27.6225 40.3804 27.5078C40.5628 27.3948 40.716 27.2426 40.8282 27.063C40.9428 26.8809 41 26.6584 41 26.3955C41 26.1461 40.9497 25.9438 40.849 25.7887C40.7483 25.6337 40.6164 25.5056 40.4533 25.4045C40.2902 25.3034 40.1062 25.2242 39.9014 25.1669C39.6955 25.1092 39.4889 25.0536 39.2818 25C39.0269 24.935 38.7718 24.871 38.5164 24.8079C38.2977 24.7539 38.0947 24.6899 37.9072 24.6157C37.7267 24.5415 37.5827 24.4354 37.4751 24.2972C37.3675 24.159 37.3137 23.9618 37.3137 23.7056C37.3137 23.6584 37.3276 23.5742 37.3554 23.4528C37.3832 23.3315 37.4491 23.2084 37.5532 23.0837C37.6574 22.959 37.817 22.8478 38.0322 22.75C38.2474 22.6523 38.5425 22.6034 38.9174 22.6033C39.1742 22.6033 39.4085 22.6303 39.6203 22.6843C39.832 22.7382 40.0142 22.8242 40.1669 22.9421C40.3196 23.0601 40.4377 23.2101 40.521 23.3921C40.6043 23.5742 40.646 23.7967 40.646 24.0596" fill="#444444"/>
<path d="M40.6459 24.0596H40.8542C40.8542 23.4797 40.6806 23.0584 40.3336 22.7955C39.9865 22.5326 39.5144 22.4012 38.9173 22.4011C38.5841 22.4011 38.303 22.4416 38.0739 22.5225C37.8448 22.6034 37.6573 22.7079 37.5116 22.8359C37.3657 22.964 37.2616 23.1056 37.1991 23.2607C37.1366 23.4158 37.1054 23.5641 37.1054 23.7056C37.1054 23.9887 37.1575 24.2146 37.2617 24.3831C37.3658 24.5517 37.5289 24.6831 37.7511 24.7775C37.9038 24.8449 38.0774 24.9056 38.2717 24.9596C38.4661 25.0135 38.6917 25.0708 38.9486 25.1314C39.1777 25.1854 39.4033 25.2394 39.6254 25.2932C39.8476 25.3472 40.0437 25.4197 40.2138 25.5106C40.3839 25.6017 40.5227 25.718 40.6303 25.8596C40.7379 26.0011 40.7917 26.1865 40.7917 26.4157C40.7917 26.6382 40.7379 26.827 40.6303 26.982C40.5236 27.1363 40.3832 27.2658 40.2191 27.3613C40.0524 27.459 39.8667 27.5298 39.6619 27.5736C39.4571 27.6174 39.2575 27.6393 39.0631 27.6393C38.4314 27.6393 37.9472 27.5028 37.6105 27.2298C37.2738 26.9568 37.1054 26.527 37.1054 25.9404H36.8972C36.8972 26.5944 37.0794 27.0731 37.4439 27.3764C37.8083 27.6798 38.348 27.8315 39.0631 27.8315C39.2923 27.8315 39.5231 27.8062 39.7556 27.7556C39.9881 27.7051 40.1964 27.6225 40.3804 27.5078C40.5628 27.3948 40.716 27.2426 40.8282 27.063C40.9428 26.8809 41 26.6584 41 26.3955C41 26.1461 40.9497 25.9438 40.849 25.7887C40.7483 25.6337 40.6164 25.5056 40.4533 25.4045C40.2902 25.3034 40.1062 25.2242 39.9014 25.1669C39.6955 25.1092 39.4889 25.0536 39.2818 25C39.0269 24.935 38.7718 24.871 38.5164 24.8079C38.2977 24.7539 38.0947 24.6899 37.9072 24.6157C37.7267 24.5415 37.5827 24.4354 37.4751 24.2972C37.3675 24.159 37.3137 23.9618 37.3137 23.7056C37.3137 23.6584 37.3276 23.5742 37.3554 23.4528C37.3832 23.3315 37.4491 23.2084 37.5532 23.0837C37.6574 22.959 37.817 22.8478 38.0322 22.75C38.2474 22.6523 38.5425 22.6034 38.9174 22.6033C39.1742 22.6033 39.4085 22.6303 39.6203 22.6843C39.832 22.7382 40.0142 22.8242 40.1669 22.9421C40.3196 23.0601 40.4377 23.2101 40.521 23.3921C40.6043 23.5742 40.646 23.7967 40.646 24.0596M9.20825 27.518V24.0596H13.6547V23.8573H9.20825V20.7022H13.9359V20.5H9V27.7202H13.9775V27.518H9.20825ZM17.9867 22.5224L16.1436 24.8786L14.342 22.5225H14.0712L16.0186 25.0304L13.8837 27.7201H14.1337L16.1434 25.1819L18.1636 27.7201H18.4239L16.2788 25.0303L18.2365 22.5224L17.9867 22.5224ZM19.0488 29.5V26.2641H19.0696C19.1946 26.736 19.4411 27.1152 19.809 27.4017C20.1769 27.6882 20.6455 27.8315 21.2148 27.8315C21.5827 27.8315 21.909 27.7591 22.1936 27.6141C22.4782 27.4692 22.716 27.272 22.9069 27.0225C23.0978 26.7731 23.2436 26.4832 23.3443 26.1529C23.445 25.8225 23.4954 25.4753 23.4953 25.1113C23.4953 24.7203 23.4432 24.3596 23.3391 24.0293C23.2349 23.6989 23.0839 23.4124 22.8861 23.1697C22.6882 22.927 22.4487 22.7382 22.1676 22.6035C21.8864 22.4686 21.5688 22.4012 21.2148 22.4012C20.944 22.4012 20.6924 22.4399 20.4598 22.5175C20.2273 22.595 20.0208 22.7045 19.8403 22.8461C19.6587 22.9888 19.5007 23.1576 19.3716 23.3467C19.2397 23.5388 19.1391 23.7495 19.0696 23.9787H19.0488V22.5224H18.8406V29.5H19.0488ZM21.2148 27.6393C20.5623 27.6393 20.0381 27.4219 19.6424 26.9871C19.2467 26.5523 19.0488 25.927 19.0488 25.1112C19.0488 24.7741 19.0974 24.4539 19.1946 24.1506C19.2918 23.8472 19.4324 23.5809 19.6163 23.3517C19.8002 23.1225 20.0276 22.9405 20.2984 22.8056C20.5692 22.6708 20.8746 22.6034 21.2148 22.6033C21.5619 22.6033 21.8656 22.6708 22.1259 22.8056C22.3863 22.9405 22.6015 23.1242 22.7716 23.3567C22.9416 23.5893 23.0701 23.8556 23.1569 24.1556C23.2437 24.4556 23.287 24.7741 23.287 25.1112C23.287 25.4147 23.2471 25.7163 23.1672 26.0163C23.0874 26.3162 22.9642 26.5859 22.7976 26.8253C22.631 27.0646 22.4176 27.2601 22.1572 27.4118C21.8968 27.5635 21.5827 27.6393 21.2148 27.6393ZM24.6407 27.7202V24.7775C24.6407 24.4944 24.6824 24.218 24.7657 23.9483C24.849 23.6786 24.9774 23.441 25.151 23.2354C25.3246 23.0298 25.545 22.868 25.8123 22.75C26.0795 22.632 26.3971 22.5831 26.7651 22.6033V22.4011C26.4457 22.3944 26.1663 22.4281 25.9268 22.5022C25.6873 22.5764 25.4807 22.6775 25.3072 22.8056C25.1336 22.9337 24.9948 23.0837 24.8907 23.2556C24.7867 23.4273 24.7095 23.613 24.6616 23.8067H24.6407V22.5224H24.4325V27.7203L24.6407 27.7202ZM27.0254 25.1618H31.5031C31.517 24.8045 31.4805 24.4607 31.3937 24.1303C31.307 23.8 31.1682 23.5067 30.9772 23.2506C30.7863 22.9944 30.5399 22.7887 30.2379 22.6337C29.9359 22.4786 29.5766 22.4011 29.1601 22.4011C28.8616 22.4011 28.57 22.4618 28.2854 22.5832C28.0008 22.7045 27.7508 22.8814 27.5356 23.114C27.3204 23.3466 27.1469 23.6315 27.015 23.9686C26.8831 24.3057 26.8172 24.69 26.8171 25.1214C26.8171 25.5056 26.8622 25.8646 26.9525 26.1983C27.0427 26.532 27.1816 26.8219 27.369 27.068C27.5565 27.314 27.7978 27.5045 28.0928 27.6393C28.3878 27.7742 28.7435 27.8382 29.1601 27.8315C29.771 27.8315 30.2847 27.6646 30.7013 27.3309C31.1178 26.9972 31.3642 26.527 31.4406 25.9202H31.2324C31.1421 26.4933 30.9113 26.9231 30.5399 27.2095C30.1685 27.496 29.7016 27.6393 29.1392 27.6393C28.7575 27.6393 28.4346 27.5753 28.1708 27.4472C27.9071 27.3191 27.6919 27.1438 27.5252 26.9214C27.3586 26.6989 27.2354 26.4376 27.1556 26.1376C27.0757 25.8377 27.0323 25.5124 27.0254 25.1618ZM31.2948 24.9595H27.0254C27.0462 24.5955 27.1156 24.2685 27.2336 23.9787C27.3517 23.6887 27.5061 23.441 27.6971 23.2354C27.8879 23.0298 28.1101 22.8731 28.3635 22.7652C28.6169 22.6572 28.8894 22.6033 29.1809 22.6033C29.528 22.6033 29.8335 22.6657 30.0973 22.7905C30.3611 22.9152 30.5815 23.0854 30.7586 23.3011C30.9356 23.5169 31.0692 23.768 31.1594 24.0545C31.2497 24.341 31.2948 24.6427 31.2948 24.9595ZM35.8246 24.0596H36.0329C36.0329 23.4797 35.8593 23.0584 35.5123 22.7955C35.1651 22.5326 34.693 22.4011 34.096 22.4011C33.7628 22.4011 33.4816 22.4416 33.2525 22.5225C33.0234 22.6034 32.836 22.7079 32.6902 22.8359C32.5444 22.964 32.4403 23.1056 32.3778 23.2607C32.3153 23.4158 32.2841 23.5641 32.2841 23.7056C32.2841 23.9887 32.3361 24.2146 32.4403 24.3831C32.5444 24.5517 32.7076 24.6831 32.9297 24.7775C33.0824 24.8449 33.256 24.9056 33.4504 24.9596C33.6447 25.0135 33.8704 25.0708 34.1273 25.1314C34.3563 25.1854 34.5819 25.2394 34.8041 25.2932C35.0262 25.3472 35.2224 25.4197 35.3924 25.5106C35.5626 25.6017 35.7014 25.718 35.809 25.8596C35.9166 26.0012 35.9704 26.1865 35.9704 26.4157C35.9704 26.6382 35.9166 26.827 35.809 26.982C35.7023 27.1363 35.5619 27.2658 35.3977 27.3613C35.231 27.459 35.0453 27.5298 34.8406 27.5736C34.6358 27.6174 34.4362 27.6393 34.2418 27.6393C33.6101 27.6393 33.1258 27.5028 32.7891 27.2298C32.4525 26.9568 32.2841 26.527 32.2841 25.9404H32.0758C32.0758 26.5944 32.258 27.0731 32.6225 27.3764C32.987 27.6798 33.5268 27.8315 34.2418 27.8315C34.4709 27.8315 34.7017 27.8062 34.9343 27.7556C35.1668 27.7051 35.3751 27.6225 35.5591 27.5078C35.7414 27.3948 35.8946 27.2426 36.0068 27.063C36.1214 26.8809 36.1787 26.6584 36.1787 26.3955C36.1787 26.1461 36.1284 25.9438 36.0277 25.7887C35.927 25.6337 35.7951 25.5056 35.6319 25.4045C35.4688 25.3034 35.2848 25.2242 35.0801 25.1669C34.8741 25.1092 34.6675 25.0536 34.4604 25C34.2056 24.935 33.9504 24.871 33.6951 24.8079C33.4764 24.7539 33.2734 24.6899 33.0859 24.6157C32.9054 24.5415 32.7614 24.4354 32.6537 24.2972C32.5462 24.159 32.4924 23.9618 32.4924 23.7056C32.4924 23.6584 32.5063 23.5742 32.534 23.4528C32.5618 23.3314 32.6277 23.2084 32.7319 23.0837C32.836 22.959 32.9957 22.8477 33.2109 22.75C33.4261 22.6522 33.7211 22.6033 34.096 22.6033C34.3528 22.6033 34.5871 22.6303 34.7989 22.6843C35.0106 22.7382 35.1929 22.8242 35.3456 22.9421C35.4983 23.0601 35.6163 23.2101 35.6996 23.3921C35.783 23.5742 35.8246 23.7967 35.8246 24.0596Z" stroke="#444444" stroke-width="0.2"/>
</g>
<defs>
<clipPath id="clip0_1421_10915">
<rect width="32" height="9" fill="white" transform="translate(9 20.5)"/>
</clipPath>
</defs>
</svg>
