<svg width="48" height="48" viewBox="0 0 48 48" fill="none" xmlns="http://www.w3.org/2000/svg">
<rect width="48" height="48" rx="24" fill="#444444"/>
<ellipse cx="24" cy="25.5" rx="18" ry="18.5" fill="white"/>
<path d="M24 4C21.3736 4 18.7728 4.5173 16.3463 5.52237C13.9198 6.52744 11.715 8.00059 9.85786 9.85772C6.10714 13.6084 4 18.6953 4 23.9995C4 32.8393 9.74 40.3391 17.68 42.999C18.68 43.159 19 42.539 19 41.999V38.6191C13.46 39.8191 12.28 35.9392 12.28 35.9392C11.36 33.6193 10.06 32.9993 10.06 32.9993C8.24 31.7593 10.2 31.7993 10.2 31.7993C12.2 31.9393 13.26 33.8593 13.26 33.8593C15 36.8992 17.94 35.9992 19.08 35.5192C19.26 34.2192 19.78 33.3393 20.34 32.8393C15.9 32.3393 11.24 30.6193 11.24 22.9995C11.24 20.7796 12 18.9996 13.3 17.5797C13.1 17.0797 12.4 14.9997 13.5 12.2998C13.5 12.2998 15.18 11.7598 19 14.3397C20.58 13.8998 22.3 13.6798 24 13.6798C25.7 13.6798 27.42 13.8998 29 14.3397C32.82 11.7598 34.5 12.2998 34.5 12.2998C35.6 14.9997 34.9 17.0797 34.7 17.5797C36 18.9996 36.76 20.7796 36.76 22.9995C36.76 30.6393 32.08 32.3193 27.62 32.8193C28.34 33.4393 29 34.6592 29 36.5192V41.999C29 42.539 29.32 43.179 30.34 42.999C38.28 40.3191 44 32.8393 44 23.9995C44 21.3731 43.4827 18.7725 42.4776 16.346C41.4725 13.9196 39.9993 11.7148 38.1421 9.85772C36.285 8.00059 34.0802 6.52744 31.6537 5.52237C29.2272 4.5173 26.6264 4 24 4Z" fill="#444444"/>
</svg>
