<svg width="50" height="50" viewBox="0 0 50 50" fill="none" xmlns="http://www.w3.org/2000/svg">
<rect x="0.5" y="0.5" width="49" height="49" rx="24.5" fill="white"/>
<rect x="0.5" y="0.5" width="49" height="49" rx="24.5" stroke="#6945FF"/>
<g clip-path="url(#clip0_1421_10858)">
<path d="M25 13C23.4241 13 21.8637 13.3104 20.4078 13.9134C18.9519 14.5165 17.629 15.4004 16.5147 16.5147C14.2643 18.7652 13 21.8174 13 25C13 30.304 16.444 34.804 21.208 36.4C21.808 36.496 22 36.124 22 35.8V33.772C18.676 34.492 17.968 32.164 17.968 32.164C17.416 30.772 16.636 30.4 16.636 30.4C15.544 29.656 16.72 29.68 16.72 29.68C17.92 29.764 18.556 30.916 18.556 30.916C19.6 32.74 21.364 32.2 22.048 31.912C22.156 31.132 22.468 30.604 22.804 30.304C20.14 30.004 17.344 28.972 17.344 24.4C17.344 23.068 17.8 22 18.58 21.148C18.46 20.848 18.04 19.6 18.7 17.98C18.7 17.98 19.708 17.656 22 19.204C22.948 18.94 23.98 18.808 25 18.808C26.02 18.808 27.052 18.94 28 19.204C30.292 17.656 31.3 17.98 31.3 17.98C31.96 19.6 31.54 20.848 31.42 21.148C32.2 22 32.656 23.068 32.656 24.4C32.656 28.984 29.848 29.992 27.172 30.292C27.604 30.664 28 31.396 28 32.512V35.8C28 36.124 28.192 36.508 28.804 36.4C33.568 34.792 37 30.304 37 25C37 23.4241 36.6896 21.8637 36.0866 20.4078C35.4835 18.9519 34.5996 17.629 33.4853 16.5147C32.371 15.4004 31.0481 14.5165 29.5922 13.9134C28.1363 13.3104 26.5759 13 25 13Z" fill="#444444"/>
</g>
<defs>
<clipPath id="clip0_1421_10858">
<rect x="13" y="13" width="24" height="24" rx="12" fill="white"/>
</clipPath>
</defs>
</svg>
