<svg width="50" height="50" viewBox="0 0 50 50" fill="none" xmlns="http://www.w3.org/2000/svg">
<rect x="0.5" y="0.5" width="49" height="49" rx="24.5" fill="white"/>
<rect x="0.5" y="0.5" width="49" height="49" rx="24.5" stroke="#6945FF"/>
<path d="M31.375 13H18.625C15.5184 13 13 15.5184 13 18.625V31.375C13 34.4816 15.5184 37 18.625 37H31.375C34.4816 37 37 34.4816 37 31.375V18.625C37 15.5184 34.4816 13 31.375 13Z" fill="#330000"/>
<path d="M24.5997 27.2812H20.8797L20.1196 29.6312C20.0997 29.7212 20.0197 29.7812 19.9297 29.7712H18.0496C17.9397 29.7712 17.9097 29.7112 17.9397 29.5912L21.1597 20.3212C21.1897 20.2212 21.2197 20.1112 21.2596 19.9912C21.2997 19.7812 21.3196 19.5612 21.3196 19.3412C21.3097 19.2912 21.3496 19.2412 21.3997 19.2312H23.9896C24.0697 19.2312 24.1096 19.2612 24.1197 19.3112L27.7696 29.6112C27.7996 29.7212 27.7696 29.7712 27.6697 29.7712H25.5796C25.5097 29.7812 25.4397 29.7312 25.4197 29.6612L24.5997 27.2812ZM21.4597 25.2512H23.9997C23.9397 25.0412 23.8597 24.7912 23.7697 24.5312C23.6797 24.2612 23.5897 23.9712 23.4997 23.6712C23.3997 23.3612 23.3097 23.0612 23.2096 22.7512C23.1097 22.4412 23.0197 22.1512 22.9396 21.8612C22.8597 21.5813 22.7896 21.3212 22.7197 21.0812H22.6996C22.6096 21.5112 22.4997 21.9413 22.3597 22.3712C22.2097 22.8512 22.0597 23.3512 21.8997 23.8512C21.7705 24.3232 21.6238 24.7902 21.4597 25.2512ZM29.9997 20.9812C29.6697 20.9912 29.3497 20.8612 29.1097 20.6312C28.8797 20.3812 28.7597 20.0512 28.7697 19.7112C28.7597 19.3712 28.8897 19.0512 29.1297 18.8212C29.3697 18.5911 29.6897 18.4712 30.0197 18.4712C30.4097 18.4712 30.7097 18.5912 30.9297 18.8212C31.1513 19.0636 31.2697 19.3829 31.2597 19.7112C31.2697 20.0512 31.1497 20.3812 30.9097 20.6312C30.6797 20.8712 30.3397 21.0012 29.9997 20.9812ZM28.8797 29.6612V21.9612C28.8797 21.8612 28.9197 21.8212 29.0097 21.8212H30.9897C31.0797 21.8212 31.1197 21.8712 31.1197 21.9612V29.6612C31.1197 29.7712 31.0797 29.8212 30.9897 29.8212H29.0297C28.9297 29.8212 28.8797 29.7612 28.8797 29.6612Z" fill="#FF9A00"/>
</svg>
