<svg width="50" height="50" viewBox="0 0 50 50" fill="none" xmlns="http://www.w3.org/2000/svg">
<rect x="0.5" y="0.5" width="49" height="49" rx="24.5" fill="white"/>
<rect x="0.5" y="0.5" width="49" height="49" rx="24.5" stroke="#6945FF"/>
<g clip-path="url(#clip0_1421_10918)">
<path d="M25 36.9561C24.658 36.9561 24.34 36.8671 24.043 36.7131L21.014 34.9751C20.559 34.7331 20.787 34.6451 20.924 34.6011C21.538 34.4031 21.652 34.3591 22.29 34.0061C22.358 33.9621 22.45 33.9841 22.518 34.0281L24.841 35.3711C24.931 35.4151 25.046 35.4151 25.114 35.3711L34.201 30.2871C34.291 30.2431 34.337 30.1551 34.337 30.0451V19.8991C34.337 19.7891 34.292 19.7011 34.201 19.6571L25.114 14.5961C25.023 14.5521 24.909 14.5521 24.841 14.5961L15.754 19.6571C15.663 19.7011 15.617 19.8111 15.617 19.8991V30.0451C15.617 30.1331 15.663 30.2431 15.754 30.2871L18.236 31.6741C19.58 32.3341 20.422 31.5641 20.422 30.7941V20.7801C20.422 20.6481 20.536 20.5161 20.696 20.5161H21.857C21.994 20.5161 22.13 20.6261 22.13 20.7801V30.7931C22.13 32.5321 21.151 33.5441 19.443 33.5441C18.919 33.5441 18.509 33.5441 17.348 32.9941L14.957 31.6741C14.6689 31.5157 14.4283 31.2832 14.26 31.0007C14.0918 30.7182 14.002 30.3959 14 30.0671V19.9211C14 19.2611 14.364 18.6451 14.957 18.3151L24.044 13.2301C24.3398 13.0784 24.6675 12.9993 25 12.9993C25.3325 12.9993 25.6602 13.0784 25.956 13.2301L35.044 18.3141C35.636 18.6441 36 19.2601 36 19.9201V30.0661C36 30.7261 35.636 31.3421 35.044 31.6731L25.957 36.7561C25.655 36.887 25.3292 36.9544 25 36.9541M27.801 29.9771C23.816 29.9771 22.996 28.2171 22.996 26.7201C22.996 26.5881 23.11 26.4561 23.269 26.4561H24.453C24.59 26.4561 24.703 26.5441 24.703 26.6761C24.886 27.8421 25.41 28.4141 27.824 28.4141C29.737 28.4141 30.557 27.9961 30.557 27.0061C30.557 26.4341 30.329 26.0161 27.346 25.7301C24.863 25.4871 23.315 24.9601 23.315 23.0451C23.315 21.2621 24.863 20.2051 27.46 20.2051C30.375 20.2051 31.81 21.1741 31.992 23.2871C31.99 23.3586 31.9659 23.4278 31.923 23.4851C31.878 23.5291 31.81 23.5731 31.741 23.5731H30.557C30.4995 23.5717 30.444 23.5516 30.3989 23.5159C30.3538 23.4802 30.3215 23.4308 30.307 23.3751C30.033 22.1651 29.327 21.7681 27.46 21.7681C25.364 21.7681 25.114 22.4721 25.114 23.0011C25.114 23.6391 25.41 23.8371 28.234 24.1891C31.035 24.5411 32.356 25.0471 32.356 26.9391C32.333 28.8771 30.694 29.9771 27.801 29.9771Z" fill="#444444"/>
</g>
<defs>
<clipPath id="clip0_1421_10918">
<rect width="24" height="24" fill="white" transform="translate(13 13)"/>
</clipPath>
</defs>
</svg>
