<svg width="50" height="50" viewBox="0 0 50 50" fill="none" xmlns="http://www.w3.org/2000/svg">
<rect x="0.5" y="0.5" width="49" height="49" rx="24.5" fill="white"/>
<rect x="0.5" y="0.5" width="49" height="49" rx="24.5" stroke="#6945FF"/>
<g clip-path="url(#clip0_1929_10179)">
<path d="M13 17C13 14.7909 14.7909 13 17 13H33C35.2091 13 37 14.7909 37 17V33C37 35.2091 35.2091 37 33 37H17C14.7909 37 13 35.2091 13 33V17Z" fill="#F7DF1E"/>
<path d="M19.3106 33.0561L21.1472 31.9446C21.5016 32.5728 21.8239 33.1044 22.597 33.1044C23.3381 33.1044 23.8055 32.8145 23.8055 31.6869V24.0183H26.0608V31.7188C26.0608 34.0548 24.6915 35.1181 22.6937 35.1181C20.8895 35.1181 19.8422 34.1837 19.3105 33.0559M27.2859 32.8144L29.1222 31.7512C29.6057 32.5407 30.234 33.1206 31.3455 33.1206C32.2801 33.1206 32.876 32.6534 32.876 32.0089C32.876 31.2357 32.2638 30.9617 31.2327 30.5108L30.669 30.2689C29.0418 29.5764 27.9625 28.7064 27.9625 26.8698C27.9625 25.1782 29.2512 23.8893 31.2651 23.8893C32.6989 23.8893 33.73 24.3888 34.471 25.6937L32.7148 26.8216C32.3281 26.1288 31.9094 25.855 31.265 25.855C30.6044 25.855 30.1855 26.2739 30.1855 26.8216C30.1855 27.4982 30.6044 27.7722 31.571 28.1911L32.1348 28.4327C34.052 29.2544 35.1313 30.092 35.1313 31.9768C35.1313 34.0068 33.5365 35.1183 31.3938 35.1183C29.2995 35.1183 27.9462 34.1195 27.2858 32.8145" fill="black"/>
</g>
<defs>
<clipPath id="clip0_1929_10179">
<rect width="24" height="24" fill="white" transform="translate(13 13)"/>
</clipPath>
</defs>
</svg>
