<svg width="48" height="48" viewBox="0 0 48 48" fill="none" xmlns="http://www.w3.org/2000/svg">
<rect width="48" height="48" rx="24" fill="#444444"/>
<circle cx="24" cy="24" r="19" fill="white"/>
<path d="M24 4C12.9542 4 4 12.9542 4 24C4 35.0458 12.9542 44 24 44C35.0458 44 44 35.0458 44 24C44 12.9542 35.0458 4 24 4ZM19.1042 32.2896H15.0542V19.2562H19.1042V32.2896ZM17.0542 17.6562C15.775 17.6562 14.9479 16.75 14.9479 15.6292C14.9479 14.4854 15.8 13.6062 17.1062 13.6062C18.4125 13.6062 19.2125 14.4854 19.2375 15.6292C19.2375 16.75 18.4125 17.6562 17.0542 17.6562ZM33.8958 32.2896H29.8458V25.0667C29.8458 23.3854 29.2583 22.2437 27.7938 22.2437C26.675 22.2437 26.0104 23.0167 25.7167 23.7604C25.6083 24.025 25.5812 24.4 25.5812 24.7729V32.2875H21.5292V23.4125C21.5292 21.7854 21.4771 20.425 21.4229 19.2542H24.9417L25.1271 21.0646H25.2083C25.7417 20.2146 27.0479 18.9604 29.2333 18.9604C31.8979 18.9604 33.8958 20.7458 33.8958 24.5833V32.2896Z" fill="#444444"/>
</svg>
