<svg width="50" height="50" viewBox="0 0 50 50" fill="none" xmlns="http://www.w3.org/2000/svg">
<rect x="0.5" y="0.5" width="49" height="49" rx="24.5" fill="white"/>
<rect x="0.5" y="0.5" width="49" height="49" rx="24.5" stroke="#6945FF"/>
<path d="M33.2285 28.7929C33.3299 28.7347 33.4142 28.6508 33.473 28.5497C33.5317 28.4486 33.5629 28.3338 33.5632 28.2169L33.5752 24.3588C33.5756 24.2419 33.6067 24.1271 33.6654 24.0259C33.7242 23.9248 33.8085 23.8409 33.9099 23.7827L36.0013 22.5814C36.1026 22.5231 36.2175 22.4926 36.3344 22.4927C36.4513 22.4929 36.5661 22.5238 36.6673 22.5824C36.7685 22.6409 36.8525 22.7251 36.9109 22.8263C36.9693 22.9276 37 23.0425 37 23.1594V30.1736C37 30.2908 36.9691 30.406 36.9103 30.5075C36.8515 30.609 36.767 30.6932 36.6653 30.7516L28.7725 35.2851C28.6717 35.343 28.5575 35.3735 28.4412 35.3736C28.3249 35.3738 28.2106 35.3435 28.1097 35.2857L21.9156 31.7429C21.8136 31.6847 21.7287 31.6005 21.6697 31.4988C21.6107 31.3972 21.5796 31.2818 21.5795 31.1643V27.6275C21.5795 27.6236 21.5842 27.6209 21.5883 27.6228C21.5915 27.6249 21.5962 27.6228 21.5962 27.6181V27.6142C21.5962 27.6116 21.5975 27.6088 21.6003 27.6075L26.7018 24.6768C26.7064 24.6741 26.7044 24.6668 26.699 24.6668C26.6976 24.6668 26.6963 24.6662 26.6953 24.6652C26.6943 24.6642 26.6937 24.6628 26.6937 24.6614L26.7037 21.194C26.7042 21.0767 26.6737 20.9614 26.6154 20.8597C26.5571 20.758 26.473 20.6734 26.3715 20.6146C26.2701 20.5558 26.155 20.5247 26.0377 20.5246C25.9204 20.5245 25.8052 20.5553 25.7037 20.614L21.9123 22.7988C21.8111 22.8571 21.6963 22.8878 21.5796 22.8878C21.4628 22.8878 21.3481 22.8571 21.2469 22.7988L17.4435 20.6088C17.3421 20.5504 17.2272 20.5197 17.1103 20.5198C16.9934 20.5198 16.8785 20.5507 16.7772 20.6092C16.676 20.6677 16.5919 20.7518 16.5334 20.853C16.4749 20.9543 16.4441 21.0692 16.4441 21.1861V27.4529C16.4442 27.5697 16.4136 27.6845 16.3554 27.7858C16.2972 27.8871 16.2134 27.9713 16.1124 28.03C16.0114 28.0886 15.8967 28.1197 15.7799 28.1202C15.6631 28.1206 15.5482 28.0903 15.4468 28.0323L13.336 26.8254C13.2338 26.767 13.1488 26.6826 13.0898 26.5807C13.0308 26.4789 12.9998 26.3632 13 26.2455L13.0188 15.2918C13.019 15.175 13.05 15.0604 13.1084 14.9594C13.1669 14.8583 13.2509 14.7744 13.352 14.7161C13.4532 14.6577 13.5678 14.6269 13.6846 14.6268C13.8013 14.6266 13.916 14.6572 14.0173 14.7153L21.2476 18.8679C21.3486 18.9259 21.4631 18.9564 21.5796 18.9564C21.6961 18.9564 21.8106 18.9259 21.9116 18.8679L29.1397 14.7151C29.2411 14.6568 29.3561 14.6263 29.473 14.6265C29.59 14.6267 29.7048 14.6576 29.806 14.7163C29.9072 14.7749 29.9912 14.8591 30.0496 14.9605C30.1079 15.0619 30.1386 15.1768 30.1384 15.2937V26.25C30.1385 26.3672 30.1077 26.4824 30.0491 26.5839C29.9904 26.6854 29.9061 26.7696 29.8045 26.8281L26.0191 29.0082C25.9174 29.0668 25.833 29.1512 25.7744 29.2529C25.7158 29.3545 25.685 29.4699 25.6853 29.5873C25.6856 29.7046 25.7168 29.8198 25.7759 29.9212C25.8349 30.0227 25.9197 30.1067 26.0217 30.1648L28.1098 31.3536C28.2107 31.411 28.3248 31.4411 28.441 31.4409C28.5571 31.4406 28.6711 31.4101 28.7718 31.3522L33.2285 28.7929ZM33.6665 18.9646C33.6666 19.0825 33.698 19.1983 33.7574 19.3001C33.8168 19.402 33.9022 19.4862 34.0048 19.5443C34.1074 19.6024 34.2236 19.6322 34.3415 19.6307C34.4594 19.6293 34.5748 19.5966 34.6759 19.5359L36.676 18.3359C36.7747 18.2768 36.8565 18.1931 36.9133 18.093C36.97 17.9928 36.9999 17.8797 37 17.7646V15.3192C36.9998 15.2013 36.9684 15.0856 36.9089 14.9839C36.8494 14.8821 36.764 14.798 36.6614 14.74C36.5588 14.682 36.4427 14.6522 36.3249 14.6537C36.207 14.6552 36.0917 14.6879 35.9906 14.7485L33.9906 15.9485C33.8919 16.0076 33.8101 16.0914 33.7533 16.1915C33.6965 16.2916 33.6666 16.4048 33.6665 16.5199V18.9653V18.9646Z" fill="#007FFF"/>
</svg>
