<svg width="50" height="50" viewBox="0 0 50 50" fill="none" xmlns="http://www.w3.org/2000/svg">
<rect x="0.5" y="0.5" width="49" height="49" rx="24.5" fill="white"/>
<rect x="0.5" y="0.5" width="49" height="49" rx="24.5" stroke="#6945FF"/>
<g clip-path="url(#clip0_1421_10853)">
<path d="M26.5771 24.9833L28.9169 27.6578L32.0633 29.6682L32.6106 25.0002L32.0633 20.4375L28.8566 22.2037L26.5771 24.9833Z" fill="#00832D"/>
<path d="M13 29.2338V33.2117C13 34.1199 13.7373 34.8573 14.6457 34.8573H18.6235L19.4472 31.8518L18.6235 29.2338L15.8944 28.4102L13 29.2338Z" fill="#0066DA"/>
<path d="M18.6235 15.1094L13 20.7329L15.8946 21.5546L18.6235 20.7329L19.4322 18.1505L18.6235 15.1094Z" fill="#E94235"/>
<path d="M13 29.2354H18.6234V20.7327H13V29.2354Z" fill="#2684FC"/>
<path d="M35.6559 17.4905L32.0635 20.4376V29.6682L35.6707 32.6268C36.2107 33.0498 37.0006 32.6643 37.0006 31.9778V18.1263C37.0006 17.4323 36.1919 17.0486 35.6558 17.4906" fill="#00AC47"/>
<path d="M26.5766 24.9834V29.2338H18.623V34.8573H30.4172C31.3256 34.8573 32.0628 34.1199 32.0628 33.2116V29.6683L26.5766 24.9834Z" fill="#00AC47"/>
<path d="M30.4172 15.1094H18.623V20.7329H26.5766V24.9833L32.0629 20.4374V16.7552C32.0629 15.8467 31.3256 15.1095 30.4172 15.1095" fill="#FFBA00"/>
</g>
<defs>
<clipPath id="clip0_1421_10853">
<rect width="24" height="19.7812" fill="white" transform="translate(13 15.1094)"/>
</clipPath>
</defs>
</svg>
