<svg width="50" height="50" viewBox="0 0 50 50" fill="none" xmlns="http://www.w3.org/2000/svg">
<rect x="0.5" y="0.5" width="49" height="49" rx="24.5" fill="white"/>
<rect x="0.5" y="0.5" width="49" height="49" rx="24.5" stroke="#6945FF"/>
<g clip-path="url(#clip0_1421_10912)">
<path d="M26.6775 15.6714C25.6716 14.4779 24.8053 13.2657 24.6284 13.014C24.6242 13.0096 24.6191 13.006 24.6135 13.0036C24.6079 13.0012 24.6019 13 24.5958 13C24.5897 13 24.5836 13.0012 24.578 13.0036C24.5724 13.006 24.5674 13.0096 24.5632 13.014C24.3862 13.2657 23.52 14.4779 22.514 15.6714C13.8798 26.6832 23.8739 34.1147 23.8739 34.1147L23.9577 34.1706C24.0322 35.3175 24.2185 36.9679 24.2185 36.9679H24.9637C24.9637 36.9679 25.1499 35.3268 25.2244 34.1707L25.3083 34.1053C25.3176 34.1147 35.3117 26.6833 26.6775 15.6714ZM24.5911 33.9468C24.5911 33.9468 24.144 33.5645 24.0229 33.3688V33.3501L24.5632 21.3592C24.5632 21.3219 24.6191 21.3219 24.6191 21.3592L25.1593 33.3501V33.3688C25.0382 33.5645 24.5911 33.9468 24.5911 33.9468" fill="#01EC64"/>
</g>
<defs>
<clipPath id="clip0_1421_10912">
<rect width="11.1913" height="24" fill="white" transform="translate(19 13)"/>
</clipPath>
</defs>
</svg>
