<svg width="48" height="48" viewBox="0 0 48 48" fill="none" xmlns="http://www.w3.org/2000/svg">
<rect width="48" height="48" rx="24" fill="#444444"/>
<circle cx="24" cy="24" r="20" fill="white"/>
<path d="M43.4429 25.5034C43.4807 25.0072 43.5 24.5058 43.5 23.9999C43.5 20.9515 42.8005 18.0666 41.5533 15.4967C39.0792 17.8454 36.1343 19.7029 32.8748 20.9131C32.9577 21.931 33 22.9605 33 23.9999C33 26.2023 32.8101 28.3603 32.4459 30.4585C36.4325 29.4554 40.1435 27.7584 43.4429 25.5034Z" fill="#444444"/>
<path d="M29.2686 31.1001C29.748 28.8087 30 26.4337 30 23.9999C30 23.2631 29.9769 22.5317 29.9314 21.8064C28.0281 22.2598 26.0421 22.4999 24 22.4999C21.9579 22.4999 19.9719 22.2598 18.0686 21.8064C18.0231 22.5317 18 23.2631 18 23.9999C18 26.4337 18.252 28.8087 18.7314 31.1001C20.4492 31.3633 22.2086 31.4999 24 31.4999C25.7914 31.4999 27.5508 31.3633 29.2686 31.1001Z" fill="#444444"/>
<path d="M19.5445 34.2379C21.0056 34.4109 22.4924 34.4999 24 34.4999C25.5076 34.4999 26.9944 34.4109 28.4555 34.2379C27.428 37.5492 25.9151 40.647 24 43.448C22.0849 40.647 20.572 37.5492 19.5445 34.2379Z" fill="#444444"/>
<path d="M15.5541 30.4585C15.1899 28.3603 15 26.2023 15 23.9999C15 22.9605 15.0423 21.931 15.1252 20.9131C11.8657 19.7029 8.92079 17.8454 6.44666 15.4967C5.19947 18.0666 4.5 20.9515 4.5 23.9999C4.5 24.5058 4.51927 25.0072 4.55711 25.5034C7.85651 27.7584 11.5675 29.4554 15.5541 30.4585Z" fill="#444444"/>
<path d="M42.7121 29.5049C40.6807 36.4208 34.9195 41.741 27.7552 43.1386C29.488 40.2246 30.8371 37.0557 31.7329 33.7017C35.6526 32.88 39.3472 31.4462 42.7121 29.5049Z" fill="#444444"/>
<path d="M5.2879 29.5049C8.65284 31.4462 12.3474 32.88 16.2671 33.7017C17.1629 37.0557 18.512 40.2246 20.2448 43.1386C13.0805 41.741 7.31928 36.4209 5.2879 29.5049Z" fill="#444444"/>
<path d="M27.7552 4.86111C32.7983 5.8449 37.1462 8.7724 39.9873 12.832C37.8702 14.9697 35.3274 16.685 32.4966 17.8403C31.7241 13.1656 30.087 8.78265 27.7552 4.86111Z" fill="#444444"/>
<path d="M24 4.55176C26.8573 8.73095 28.8194 13.5707 29.6099 18.7949C27.8166 19.2551 25.9369 19.4999 24 19.4999C22.0631 19.4999 20.1834 19.2551 18.3901 18.7949C19.1806 13.5707 21.1427 8.73095 24 4.55176Z" fill="#444444"/>
<path d="M20.2448 4.8611C17.913 8.78264 16.2759 13.1656 15.5034 17.8403C12.6726 16.685 10.1298 14.9697 8.01269 12.832C10.8538 8.7724 15.2017 5.84489 20.2448 4.8611Z" fill="#444444"/>
</svg>
