<svg width="50" height="50" viewBox="0 0 50 50" fill="none" xmlns="http://www.w3.org/2000/svg">
<rect x="0.5" y="0.5" width="49" height="49" rx="24.5" fill="white"/>
<rect x="0.5" y="0.5" width="49" height="49" rx="24.5" stroke="#6945FF"/>
<g clip-path="url(#clip0_1421_10864)">
<path d="M17.4593 17.208C18.2053 17.814 18.4853 17.768 19.8873 17.674L33.1023 16.881C33.3823 16.881 33.1493 16.601 33.0563 16.555L30.8603 14.968C30.4403 14.642 29.8793 14.268 28.8053 14.361L16.0103 15.295C15.5443 15.341 15.4503 15.575 15.6363 15.761L17.4593 17.208ZM18.2523 20.288V34.192C18.2523 34.939 18.6253 35.219 19.4663 35.172L33.9893 34.332C34.8303 34.286 34.9243 33.772 34.9243 33.165V19.354C34.9243 18.748 34.6913 18.421 34.1763 18.467L18.9993 19.354C18.4393 19.401 18.2523 19.682 18.2523 20.288ZM32.5893 21.033C32.6823 21.453 32.5893 21.873 32.1693 21.921L31.4693 22.061V32.325C30.8613 32.652 30.3013 32.839 29.8343 32.839C29.0863 32.839 28.8993 32.605 28.3393 31.906L23.7623 24.72V31.672L25.2103 32C25.2103 32 25.2103 32.84 24.0423 32.84L20.8203 33.026C20.7273 32.84 20.8203 32.373 21.1473 32.28L21.9873 32.047V22.854L20.8223 22.76C20.7283 22.34 20.9623 21.734 21.6153 21.687L25.0713 21.454L29.8353 28.733V22.293L28.6203 22.154C28.5273 21.64 28.9003 21.267 29.3673 21.221L32.5893 21.033ZM14.9363 14.035L28.2463 13.055C29.8803 12.915 30.3013 13.008 31.3283 13.755L35.5773 16.741C36.2773 17.254 36.5113 17.394 36.5113 17.954V34.332C36.5113 35.358 36.1383 35.966 34.8313 36.058L19.3733 36.992C18.3933 37.039 17.9253 36.899 17.4113 36.245L14.2823 32.185C13.7223 31.438 13.4893 30.879 13.4893 30.225V15.667C13.4893 14.828 13.8633 14.127 14.9363 14.035Z" fill="#444444"/>
</g>
<defs>
<clipPath id="clip0_1421_10864">
<rect width="24" height="24" fill="white" transform="translate(13 13)"/>
</clipPath>
</defs>
</svg>
