<svg width="51" height="50" viewBox="0 0 51 50" fill="none" xmlns="http://www.w3.org/2000/svg">
<rect x="0.833008" y="0.5" width="49" height="49" rx="24.5" fill="white"/>
<rect x="0.833008" y="0.5" width="49" height="49" rx="24.5" stroke="#6945FF"/>
<g clip-path="url(#clip0_1847_11239)">
<path d="M34.5425 17.8873C30.6146 12.8008 23.3064 11.8618 18.2197 15.7905C13.1338 19.7192 12.1957 27.0274 16.1244 32.1133C20.0538 37.1991 27.3626 38.1366 32.4478 34.2071C37.5316 30.2784 38.4699 22.9725 34.5425 17.8873Z" fill="#F37036"/>
<path d="M30.4101 17.5307C30.0095 17.5628 29.6297 17.7222 29.3262 17.9856C28.971 18.2941 28.7443 18.7244 28.6909 19.1918C28.6374 19.6592 28.7611 20.1296 29.0374 20.5103C29.3135 20.891 29.7223 21.1545 30.1831 21.2488C30.6439 21.343 31.1233 21.2611 31.5267 21.0194H31.5271L31.5563 21.0486C31.6892 20.9725 31.8128 20.8812 31.9247 20.7767C32.2701 20.4115 32.4601 19.9264 32.4546 19.4237C32.4491 18.9211 32.2487 18.4402 31.8955 18.0825V18.0822L30.2372 19.7301L30.208 19.701L31.8662 18.0524C31.6743 17.8673 31.4452 17.7251 31.1942 17.6353C30.9432 17.5454 30.6759 17.5099 30.4101 17.5311V17.5307ZM28.2269 20.2283C27.4319 20.227 26.1338 21.1281 22.9643 24.2976L22.98 24.3137C22.9628 24.3077 22.9454 24.3072 22.9454 24.3072L21.7521 25.4899C21.7215 25.5191 21.7012 25.5574 21.6943 25.5992C21.6875 25.6409 21.6945 25.6837 21.7142 25.7211C21.734 25.7585 21.7654 25.7884 21.8037 25.8063C21.842 25.8242 21.8851 25.8291 21.9265 25.8203L23.9729 25.3838C23.982 25.3754 23.988 25.3642 23.9901 25.3519L24.0355 25.3988L23.338 26.0907H23.3042L19.1631 30.2644L20.4917 31.5439C20.5288 31.5775 20.5757 31.5983 20.6255 31.6034C20.6753 31.6084 20.7254 31.5974 20.7685 31.5719C20.8119 31.5466 20.8467 31.5088 20.8683 31.4634C20.8898 31.4181 20.8972 31.3672 20.8894 31.3176L20.6954 30.4739C20.6832 30.4569 20.6766 30.4366 20.6766 30.4157C20.6766 30.3949 20.6832 30.3745 20.6954 30.3576C22.5092 29.4928 24.1961 28.3836 25.7087 27.0608L24.8584 26.2101L24.8745 26.2075L24.3702 25.7033L24.4024 25.6707L24.4365 25.7055L24.4189 25.7226L25.7571 27.09V27.0895C28.3221 24.6606 30.1427 22.7082 29.6693 21.3942C29.6477 21.237 29.5747 21.0915 29.4617 20.9802V20.9809C29.433 20.9597 29.4027 20.9405 29.3712 20.9235C29.3556 20.907 29.3419 20.8902 29.3254 20.874L29.313 20.8864C29.2782 20.8654 29.2417 20.8472 29.2039 20.832L29.2581 20.7773C28.9214 20.4773 28.6431 20.229 28.2269 20.2279V20.2283ZM19.1342 30.2894L18.1647 31.2591V31.2599C18.1299 31.2814 18.1028 31.3134 18.0874 31.3514C18.072 31.3893 18.0691 31.4311 18.079 31.4708C18.0886 31.5105 18.1104 31.5461 18.1414 31.5727C18.1724 31.5993 18.211 31.6154 18.2517 31.6187L20.6277 31.7828L19.1342 30.2894Z" fill="white"/>
<path d="M30.5738 17.3706C30.0297 17.37 29.5071 17.5835 29.119 17.965C28.843 18.2476 28.6539 18.6036 28.5745 18.9905C28.495 19.3775 28.5285 19.7792 28.6709 20.1477C27.782 19.767 26.5793 20.4308 22.8385 24.1709C22.8359 24.1766 22.8336 24.1825 22.8316 24.1885C22.8239 24.1919 22.8164 24.1957 22.8093 24.2001L21.6263 25.3934C21.5696 25.449 21.5324 25.5215 21.5201 25.6C21.5079 25.6785 21.5212 25.7588 21.5583 25.8291C21.5913 25.8847 21.6381 25.9309 21.6941 25.9633C21.7502 25.9956 21.8136 26.0129 21.8783 26.0136L21.937 25.9755L23.5165 25.6386L22.7609 26.4012C22.7566 26.4112 22.7532 26.4216 22.7508 26.4323L19.0476 30.1446C19.0329 30.157 19.0207 30.1722 19.0116 30.1892L18.058 31.1436C18.0105 31.1938 17.9781 31.2563 17.9644 31.324C17.9507 31.3917 17.9562 31.4619 17.9804 31.5267C18.0054 31.5909 18.0475 31.6471 18.1023 31.6889C18.1571 31.7307 18.2223 31.7567 18.2909 31.7639L20.6568 31.9289C20.6972 31.9148 20.7316 31.8874 20.7543 31.851C20.7745 31.8227 20.7854 31.7888 20.7854 31.754C20.7854 31.7192 20.7745 31.6853 20.7543 31.657L20.7494 31.6523C20.8006 31.6257 20.8456 31.5886 20.8816 31.5435C20.9195 31.4942 20.9461 31.4371 20.9592 31.3762C20.9724 31.3154 20.9719 31.2524 20.9577 31.1918L20.7732 30.4067C22.5433 29.5608 24.2018 28.4989 25.7108 27.2453C25.7254 27.2538 25.741 27.2603 25.7573 27.2646C25.805 27.261 25.8496 27.2406 25.8833 27.2069C28.424 24.8012 29.9174 23.1527 29.9174 21.844C29.923 21.6624 29.8957 21.4814 29.8366 21.3096C30.0656 21.4044 30.3098 21.4571 30.5575 21.4652L30.5547 21.466C30.8959 21.4557 31.2295 21.3624 31.5265 21.1941L31.5273 21.1943C31.5657 21.2057 31.6071 21.202 31.643 21.184C31.7863 21.0996 31.917 20.9953 32.0311 20.8742C32.2245 20.6845 32.3781 20.4582 32.483 20.2084C32.5879 19.9587 32.6419 19.6905 32.642 19.4196C32.6419 19.1487 32.5879 18.8806 32.4831 18.6308C32.3782 18.381 32.2246 18.1547 32.0313 17.965C32.0243 17.9588 32.0169 17.953 32.0091 17.9479C31.6231 17.5774 31.1087 17.3706 30.5736 17.3708L30.5738 17.3706ZM30.5575 17.7029C30.9364 17.7051 31.3042 17.8311 31.6049 18.0617L30.0921 19.5837C30.087 19.5895 30.0823 19.5956 30.0779 19.602C30.0506 19.6296 30.0346 19.6664 30.0331 19.7052C30.0331 19.7286 30.0383 19.7517 30.0485 19.7728C30.0587 19.7939 30.0734 19.8125 30.0918 19.827H30.0921L31.2359 20.9708C30.9228 21.1074 30.5758 21.1463 30.2403 21.0823C29.9048 21.0183 29.5964 20.8544 29.3556 20.6121C28.8708 20.1246 28.7301 19.3926 28.9895 18.7575C29.2488 18.1219 29.867 17.7066 30.5575 17.7029ZM31.8925 18.3464C32.1399 18.6456 32.2747 19.022 32.2737 19.4102C32.273 19.8651 32.0917 20.301 31.7697 20.6222C31.7051 20.683 31.6363 20.739 31.5638 20.79L30.6408 19.8812L30.4602 19.7007L30.5099 19.651L31.8923 18.346L31.8925 18.3464ZM31.8239 19.1325C31.79 19.1219 31.7533 19.1239 31.7208 19.1384C31.6886 19.155 31.6643 19.1837 31.6533 19.2182C31.6478 19.2355 31.6459 19.2536 31.6475 19.2716C31.6491 19.2896 31.6542 19.3071 31.6626 19.323C31.6959 19.3931 31.709 19.471 31.7005 19.5481C31.692 19.6252 31.6622 19.6984 31.6145 19.7595C31.6022 19.7713 31.5927 19.7856 31.5864 19.8014C31.58 19.8171 31.5772 19.8341 31.5779 19.851C31.5786 19.8855 31.591 19.9185 31.6145 19.9433C31.6395 19.9528 31.6671 19.9528 31.6921 19.9433C31.7146 19.9489 31.7383 19.9483 31.7605 19.9414C31.7827 19.9346 31.8026 19.9218 31.8181 19.9045C31.8979 19.8067 31.9485 19.6883 31.9639 19.563C31.9793 19.4377 31.959 19.3105 31.9053 19.1963V19.197C31.8869 19.1663 31.858 19.1434 31.8239 19.1325ZM28.2095 20.3931C28.4357 20.4008 28.6534 20.4815 28.8301 20.623C28.6398 20.6504 28.4635 20.7385 28.3274 20.8742L24.0511 25.1314L23.2118 24.2922C25.4296 22.0849 26.7856 20.932 27.6286 20.5542C27.8023 20.4448 28.0042 20.3889 28.2095 20.3931ZM28.9529 20.9481C29.0965 20.9482 29.2342 21.0051 29.336 21.1064C29.39 21.1572 29.4326 21.219 29.461 21.2875C29.4894 21.3561 29.503 21.4299 29.5008 21.504C29.4983 21.578 29.4806 21.6506 29.4489 21.7173C29.4171 21.7841 29.3719 21.8436 29.3161 21.8922L24.7692 25.8495L24.2785 25.3589L28.5698 21.1064C28.6716 21.0052 28.8093 20.9482 28.9529 20.9481ZM29.5143 22.204C29.1974 23.4606 27.518 25.1633 25.7667 26.8178L25.0585 26.1104L29.5143 22.204ZM22.9645 24.54L23.0159 24.5907L23.6746 25.2494L21.869 25.6356L22.9645 24.54ZM24.0507 25.635L24.0515 25.6358L24.2705 25.8599L24.2738 25.8756L24.2885 25.8779L24.335 25.9255L24.4887 26.083L23.479 26.2067L24.0507 25.635ZM24.7758 26.3993L25.4466 27.0698C23.9632 28.3033 22.3353 29.352 20.5988 30.1928C20.5425 30.2196 20.4971 30.2652 20.4706 30.3217C20.444 30.3782 20.4378 30.4422 20.4531 30.5027L20.6472 31.3465C20.6544 31.3564 20.6582 31.3683 20.6582 31.3805C20.6582 31.3927 20.6544 31.4046 20.6472 31.4145C20.6365 31.4241 20.6227 31.4294 20.6084 31.4294C20.5941 31.4294 20.5802 31.4241 20.5696 31.4145L19.4255 30.261L22.952 26.6828L24.7758 26.3993ZM19.1633 30.513L19.3263 30.6657L20.1685 31.5079L18.2905 31.3864L19.1633 30.513Z" fill="#F37036"/>
</g>
<defs>
<clipPath id="clip0_1847_11239">
<rect width="24" height="24" fill="white" transform="translate(13.333 13)"/>
</clipPath>
</defs>
</svg>
