<svg width="50" height="50" viewBox="0 0 50 50" fill="none" xmlns="http://www.w3.org/2000/svg">
<rect x="0.5" y="0.5" width="49" height="49" rx="24.5" fill="white"/>
<rect x="0.5" y="0.5" width="49" height="49" rx="24.5" stroke="#6945FF"/>
<path d="M24.9998 27.1375C26.1803 27.1375 27.1373 26.1806 27.1373 25C27.1373 23.8195 26.1803 22.8625 24.9998 22.8625C23.8193 22.8625 22.8623 23.8195 22.8623 25C22.8623 26.1806 23.8193 27.1375 24.9998 27.1375Z" fill="#61DAFB"/>
<path d="M33.1189 21.475C32.7064 21.325 32.2752 21.175 31.8252 21.0438C31.9377 20.5938 32.0314 20.1438 32.1064 19.7125C32.5002 17.2375 32.0689 15.4938 30.8689 14.8188C30.5127 14.6125 30.1189 14.5188 29.6689 14.5188C28.3564 14.5188 26.6877 15.4938 25.0002 17.125C23.3127 15.4938 21.6439 14.5188 20.3314 14.5188C19.8814 14.5188 19.4877 14.6125 19.1314 14.8188C17.9314 15.5125 17.5002 17.2563 17.8939 19.7125C17.9689 20.1438 18.0627 20.5938 18.1752 21.0438C17.7252 21.175 17.2939 21.3063 16.8814 21.475C14.5377 22.375 13.2627 23.6125 13.2627 25C13.2627 26.3876 14.5564 27.6251 16.8814 28.5251C17.2939 28.6751 17.7252 28.8251 18.1752 28.9563C18.0627 29.4063 17.9689 29.8563 17.8939 30.2875C17.5002 32.7626 17.9314 34.5063 19.1314 35.1813C19.4877 35.3876 19.8814 35.4813 20.3314 35.4813C21.6627 35.4813 23.3314 34.5063 25.0002 32.8751C26.6877 34.5063 28.3564 35.4813 29.6689 35.4813C30.1189 35.4813 30.5127 35.3876 30.8689 35.1813C32.0689 34.4876 32.5002 32.7438 32.1064 30.2875C32.0314 29.8563 31.9377 29.4063 31.8252 28.9563C32.2752 28.8251 32.7064 28.6938 33.1189 28.5251C35.4627 27.6251 36.7377 26.3876 36.7377 25C36.7377 23.6125 35.4627 22.375 33.1189 21.475ZM30.3439 15.7563C31.1127 16.2063 31.3752 17.5938 31.0564 19.5625C31.0002 19.9563 30.9064 20.3688 30.7939 20.8C29.8189 20.575 28.7877 20.425 27.7002 20.3313C27.0627 19.4313 26.4064 18.625 25.7502 17.8938C27.1377 16.525 28.5439 15.5875 29.6877 15.5875C29.9314 15.5875 30.1564 15.6438 30.3439 15.7563ZM28.2439 26.8751C27.9064 27.475 27.5127 28.0751 27.1002 28.675C26.4064 28.7313 25.7127 28.7501 25.0002 28.7501C24.2689 28.7501 23.5752 28.7313 22.9002 28.675C22.4877 28.0751 22.1127 27.475 21.7752 26.8751C21.4189 26.2563 21.0814 25.6188 20.7814 25C21.0814 24.3813 21.4189 23.7438 21.7752 23.125C22.1127 22.5251 22.5064 21.925 22.9189 21.325C23.6127 21.2688 24.3064 21.25 25.0189 21.25C25.7502 21.25 26.4439 21.2688 27.1189 21.325C27.5314 21.925 27.9064 22.5251 28.2439 23.125C28.6002 23.7438 28.9377 24.3813 29.2377 25C28.9189 25.6188 28.6002 26.2375 28.2439 26.8751ZM29.8002 26.2563C30.0814 26.9125 30.3064 27.55 30.5127 28.1876C29.8752 28.3376 29.2002 28.4501 28.4877 28.5438C28.7127 28.1876 28.9564 27.8126 29.1627 27.4188C29.3877 27.0251 29.5939 26.6313 29.8002 26.2563ZM25.0002 31.3376C24.5502 30.8501 24.1189 30.3251 23.7064 29.7813C24.1377 29.8001 24.5689 29.8188 25.0002 29.8188C25.4314 29.8188 25.8627 29.8001 26.2939 29.7813C25.8814 30.3251 25.4502 30.8501 25.0002 31.3376ZM21.5127 28.5251C20.8002 28.4313 20.1252 28.3188 19.4877 28.1688C19.6939 27.5501 19.9189 26.8938 20.2002 26.2375C20.4064 26.6125 20.6127 27.0063 20.8377 27.3813C21.0627 27.7938 21.2877 28.1501 21.5127 28.5251ZM20.2002 23.7438C19.9189 23.0875 19.6939 22.45 19.4877 21.8125C20.1252 21.6625 20.8002 21.55 21.5127 21.4563C21.2877 21.8125 21.0439 22.1875 20.8377 22.5813C20.6127 22.975 20.4064 23.3688 20.2002 23.7438ZM25.0002 18.6625C25.4502 19.15 25.8814 19.675 26.2939 20.2188C25.8627 20.2 25.4314 20.1813 25.0002 20.1813C24.5689 20.1813 24.1377 20.2 23.7064 20.2188C24.1189 19.675 24.5502 19.15 25.0002 18.6625ZM29.1627 22.6L28.4877 21.475C29.2002 21.5688 29.8752 21.6813 30.5127 21.8313C30.3064 22.45 30.0814 23.1063 29.8002 23.7626C29.5939 23.3688 29.3877 22.975 29.1627 22.6ZM18.9439 19.5625C18.6252 17.5938 18.8877 16.2063 19.6564 15.7563C19.8439 15.6438 20.0689 15.5875 20.3127 15.5875C21.4377 15.5875 22.8439 16.5063 24.2502 17.8938C23.5939 18.6063 22.9377 19.4313 22.3002 20.3313C21.2127 20.425 20.1814 20.5938 19.2064 20.8C19.0939 20.3688 19.0189 19.9563 18.9439 19.5625ZM14.3127 25C14.3127 24.1188 15.3814 23.1813 17.2564 22.4875C17.6314 22.3375 18.0439 22.2063 18.4564 22.0938C18.7564 23.0313 19.1314 24.025 19.5814 25.0188C19.1314 26.0125 18.7377 26.9875 18.4564 27.925C15.8689 27.175 14.3127 26.05 14.3127 25ZM19.6564 34.2438C18.8877 33.7938 18.6252 32.4063 18.9439 30.4376C19.0002 30.0438 19.0939 29.6313 19.2064 29.2001C20.1814 29.4251 21.2127 29.5751 22.3002 29.6688C22.9377 30.5688 23.5939 31.3751 24.2502 32.1063C22.8627 33.4751 21.4564 34.4125 20.3127 34.4125C20.0689 34.4125 19.8439 34.3563 19.6564 34.2438ZM31.0564 30.4376C31.3752 32.4063 31.1127 33.7938 30.3439 34.2438C30.1564 34.3563 29.9314 34.4125 29.6877 34.4125C28.5627 34.4125 27.1564 33.4938 25.7502 32.1063C26.4064 31.3938 27.0627 30.5688 27.7002 29.6688C28.7877 29.5751 29.8189 29.4063 30.7939 29.2001C30.9064 29.6313 30.9814 30.0438 31.0564 30.4376ZM32.7439 27.5126C32.3689 27.6625 31.9564 27.7938 31.5439 27.9063C31.2439 26.9688 30.8689 25.975 30.4189 24.9813C30.8689 23.9875 31.2627 23.0126 31.5439 22.075C34.1314 22.8251 35.6877 23.9501 35.6877 25C35.6877 25.8813 34.6002 26.8188 32.7439 27.5126Z" fill="#61DAFB"/>
</svg>
