<svg width="50" height="50" viewBox="0 0 50 50" fill="none" xmlns="http://www.w3.org/2000/svg">
<rect x="0.5" y="0.5" width="49" height="49" rx="24.5" fill="white"/>
<rect x="0.5" y="0.5" width="49" height="49" rx="24.5" stroke="#6945FF"/>
<g clip-path="url(#clip0_1421_10852)">
<path d="M18.1104 28.1349C18.1104 29.5093 16.9895 30.6318 15.6149 30.6318C14.2404 30.6318 13.1182 29.5093 13.1182 28.1349C13.1182 26.7605 14.2407 25.6379 15.6151 25.6379H18.1105L18.1104 28.1349ZM19.3683 28.1349C19.3683 26.7605 20.4909 25.6379 21.8652 25.6379C23.2396 25.6379 24.3622 26.7603 24.3622 28.1349V34.3852C24.3622 35.7596 23.2398 36.8821 21.8652 36.8821C20.4909 36.8821 19.3683 35.7596 19.3683 34.3852V28.1349Z" fill="#DE1C59"/>
<path d="M21.8652 18.1104C20.4909 18.1104 19.3683 16.9895 19.3683 15.6149C19.3683 14.2404 20.4909 13.1182 21.8652 13.1182C23.2396 13.1182 24.3622 14.2407 24.3622 15.6151V18.1105L21.8652 18.1104ZM21.8652 19.3683C23.2396 19.3683 24.3622 20.4909 24.3622 21.8652C24.3622 23.2396 23.2398 24.3622 21.8652 24.3622H15.6149C14.2405 24.3622 13.1182 23.2398 13.1182 21.8652C13.1182 20.4909 14.2407 19.3683 15.6151 19.3683H21.8652Z" fill="#35C5F0"/>
<path d="M31.8895 21.8652C31.8895 20.4909 33.0104 19.3683 34.3849 19.3683C35.7595 19.3683 36.8819 20.4909 36.8819 21.8652C36.8819 23.2396 35.7593 24.3622 34.3849 24.3622H31.8895V21.8652ZM30.6316 21.8652C30.6316 23.2396 29.509 24.3622 28.1346 24.3622C26.7603 24.3622 25.6377 23.2398 25.6377 21.8652V15.6149C25.6377 14.2405 26.7601 13.1182 28.1346 13.1182C29.509 13.1182 30.6316 14.2407 30.6316 15.6151V21.8652Z" fill="#2EB57D"/>
<path d="M28.1346 31.8898C29.509 31.8898 30.6316 33.0106 30.6316 34.3852C30.6316 35.7598 29.509 36.8821 28.1346 36.8821C26.7603 36.8821 25.6377 35.7596 25.6377 34.3852V31.8898H28.1346ZM28.1346 30.6318C26.7603 30.6318 25.6377 29.5093 25.6377 28.1349C25.6377 26.7605 26.7601 25.6379 28.1346 25.6379H34.3849C35.7593 25.6379 36.8819 26.7603 36.8819 28.1349C36.8819 29.5093 35.7593 30.6318 34.3849 30.6318H28.1346Z" fill="#EBB02E"/>
</g>
<defs>
<clipPath id="clip0_1421_10852">
<rect width="24" height="24" fill="white" transform="translate(13 13)"/>
</clipPath>
</defs>
</svg>
