<svg width="50" height="51" viewBox="0 0 50 51" fill="none" xmlns="http://www.w3.org/2000/svg">
<rect x="0.5" y="1" width="49" height="49" rx="24.5" fill="white"/>
<rect x="0.5" y="1" width="49" height="49" rx="24.5" stroke="#6945FF"/>
<path d="M30 21.5V29.5H34M26 28.5L27 29.5M16 28.5C16 28.7652 16.1054 29.0196 16.2929 29.2071C16.4804 29.3946 16.7348 29.5 17 29.5H19C19.2652 29.5 19.5196 29.3946 19.7071 29.2071C19.8946 29.0196 20 28.7652 20 28.5V26.5C20 26.2348 19.8946 25.9804 19.7071 25.7929C19.5196 25.6054 19.2652 25.5 19 25.5H17C16.7348 25.5 16.4804 25.3946 16.2929 25.2071C16.1054 25.0196 16 24.7652 16 24.5V22.5C16 22.2348 16.1054 21.9804 16.2929 21.7929C16.4804 21.6054 16.7348 21.5 17 21.5H19C19.2652 21.5 19.5196 21.6054 19.7071 21.7929C19.8946 21.9804 20 22.2348 20 22.5M25 21.5C25.5304 21.5 26.0391 21.7107 26.4142 22.0858C26.7893 22.4609 27 22.9696 27 23.5V27.5C27 28.0304 26.7893 28.5391 26.4142 28.9142C26.0391 29.2893 25.5304 29.5 25 29.5C24.4696 29.5 23.9609 29.2893 23.5858 28.9142C23.2107 28.5391 23 28.0304 23 27.5V23.5C23 22.9696 23.2107 22.4609 23.5858 22.0858C23.9609 21.7107 24.4696 21.5 25 21.5Z" stroke="#444444" stroke-width="2" stroke-linecap="round" stroke-linejoin="round"/>
</svg>
