<svg width="50" height="50" viewBox="0 0 50 50" fill="none" xmlns="http://www.w3.org/2000/svg">
<rect x="0.5" y="0.5" width="49" height="49" rx="24.5" fill="white"/>
<rect x="0.5" y="0.5" width="49" height="49" rx="24.5" stroke="#6945FF"/>
<g clip-path="url(#clip0_1929_10171)">
<path d="M25 17.8004C21.7999 17.8004 19.8006 19.3997 19 22.5998C20.1996 21.0002 21.6001 20.4004 23.1996 20.8004C24.1129 21.028 24.7656 21.6902 25.4884 22.4241C26.6648 23.6179 28.0264 25 31 25C34.1999 25 36.1994 23.4004 37 20.1996C35.8 21.8 34.4001 22.4001 32.8002 22C31.8871 21.7722 31.2351 21.1101 30.5114 20.3762C29.3358 19.1824 27.9745 17.8004 25 17.8004ZM19 25C15.8001 25 13.8006 26.5995 13 29.8004C14.1999 28.2 15.5998 27.5999 17.1996 28C18.1129 28.2278 18.7656 28.8899 19.4884 29.6237C20.6648 30.8175 22.0264 32.1996 25 32.1996C28.1999 32.1996 30.1994 30.6002 31 27.4002C29.8 28.9998 28.4001 29.5996 26.8002 29.1996C25.8871 28.972 25.2351 28.3097 24.5114 27.5759C23.3357 26.382 21.9745 25 19 25Z" fill="#38BDF8"/>
</g>
<defs>
<clipPath id="clip0_1929_10171">
<rect width="24" height="24" fill="white" transform="translate(13 13)"/>
</clipPath>
</defs>
</svg>
