<svg width="50" height="50" viewBox="0 0 50 50" fill="none" xmlns="http://www.w3.org/2000/svg">
<rect x="0.5" y="0.5" width="49" height="49" rx="24.5" fill="white"/>
<rect x="0.5" y="0.5" width="49" height="49" rx="24.5" stroke="#6945FF"/>
<g clip-path="url(#clip0_1421_10938)">
<mask id="mask0_1421_10938" style="mask-type:luminance" maskUnits="userSpaceOnUse" x="12" y="13" width="26" height="24">
<path d="M29.9923 36.8683C30.1841 36.9431 30.3891 36.9776 30.5948 36.9697C30.8004 36.9618 31.0022 36.9116 31.1876 36.8224L36.1483 34.4354C36.4038 34.3124 36.6194 34.1198 36.7703 33.8797C36.9211 33.6396 37.0011 33.3617 37.0011 33.0782V16.8927C37.0011 16.6092 36.9211 16.3314 36.7702 16.0913C36.6194 15.8512 36.4038 15.6586 36.1483 15.5356L31.1877 13.1486C30.9074 13.0137 30.5921 12.9693 30.2855 13.0215C29.9788 13.0737 29.696 13.22 29.4761 13.44L19.9793 22.104L15.8426 18.964C15.6561 18.8224 15.4258 18.7505 15.1917 18.7609C14.9577 18.7713 14.7347 18.8633 14.5614 19.021L13.2347 20.2279C12.7972 20.6258 12.7967 21.314 13.2335 21.7126L16.821 24.9855L13.2335 28.2583C12.7967 28.6569 12.7972 29.3451 13.2347 29.743L14.5614 30.9498C14.7347 31.1075 14.9577 31.1995 15.1917 31.21C15.4257 31.2204 15.656 31.1485 15.8426 31.0069L19.9793 27.8668L29.4761 36.5309C29.6229 36.678 29.7987 36.7929 29.9923 36.8683ZM30.9811 19.5156L23.7752 24.9855L30.9811 30.4552V19.5156Z" fill="white"/>
</mask>
<g mask="url(#mask0_1421_10938)">
<path d="M36.1631 15.5392L31.1985 13.1488C30.9181 13.0138 30.6027 12.9693 30.2959 13.0215C29.9891 13.0736 29.7061 13.2198 29.4861 13.4398L13.2337 28.2581C12.7966 28.6568 12.7972 29.3449 13.2349 29.7429L14.5624 30.9497C14.7358 31.1074 14.959 31.1995 15.1932 31.2099C15.4273 31.2203 15.6578 31.1485 15.8445 31.0068L35.4161 16.1593C36.0727 15.6613 37.0157 16.1295 37.0157 16.9537V16.896C37.0157 16.6125 36.9357 16.3348 36.7848 16.0948C36.634 15.8548 36.4185 15.6622 36.1631 15.5392Z" fill="#0065A9"/>
</g>
<mask id="mask1_1421_10938" style="mask-type:luminance" maskUnits="userSpaceOnUse" x="12" y="13" width="26" height="24">
<path d="M29.9923 36.8683C30.1841 36.9431 30.3891 36.9776 30.5948 36.9697C30.8004 36.9618 31.0022 36.9116 31.1876 36.8224L36.1483 34.4354C36.4038 34.3124 36.6194 34.1198 36.7703 33.8797C36.9211 33.6396 37.0011 33.3617 37.0011 33.0782V16.8927C37.0011 16.6092 36.9211 16.3314 36.7702 16.0913C36.6194 15.8512 36.4038 15.6586 36.1483 15.5356L31.1877 13.1486C30.9074 13.0137 30.5921 12.9693 30.2855 13.0215C29.9788 13.0737 29.696 13.22 29.4761 13.44L19.9793 22.104L15.8426 18.964C15.6561 18.8224 15.4258 18.7505 15.1917 18.7609C14.9577 18.7713 14.7347 18.8633 14.5614 19.021L13.2347 20.2279C12.7972 20.6258 12.7967 21.314 13.2335 21.7126L16.821 24.9855L13.2335 28.2583C12.7967 28.6569 12.7972 29.3451 13.2347 29.743L14.5614 30.9498C14.7347 31.1075 14.9577 31.1995 15.1917 31.21C15.4257 31.2204 15.656 31.1485 15.8426 31.0069L19.9793 27.8668L29.4761 36.5309C29.6229 36.678 29.7987 36.7929 29.9923 36.8683ZM30.9811 19.5156L23.7752 24.9855L30.9811 30.4552V19.5156Z" fill="white"/>
</mask>
<g mask="url(#mask1_1421_10938)">
<path d="M36.1631 34.4314L31.1985 36.8218C30.9181 36.9567 30.6027 37.0012 30.2959 36.949C29.9891 36.8969 29.7062 36.7507 29.4861 36.5308L13.2337 21.7125C12.7966 21.3139 12.7972 20.6256 13.2349 20.2278L14.5624 19.0209C14.7359 18.8632 14.959 18.7712 15.1932 18.7608C15.4273 18.7503 15.6578 18.8222 15.8445 18.9639L35.4161 33.8113C36.0727 34.3093 37.0157 33.841 37.0157 33.0168V33.0746C37.0157 33.358 36.9357 33.6358 36.7848 33.8758C36.634 34.1158 36.4185 34.3084 36.1631 34.4314Z" fill="#007ACC"/>
</g>
<mask id="mask2_1421_10938" style="mask-type:luminance" maskUnits="userSpaceOnUse" x="12" y="13" width="26" height="24">
<path d="M29.9923 36.8683C30.1841 36.9431 30.3891 36.9776 30.5948 36.9697C30.8004 36.9618 31.0022 36.9116 31.1876 36.8224L36.1483 34.4354C36.4038 34.3124 36.6194 34.1198 36.7703 33.8797C36.9211 33.6396 37.0011 33.3617 37.0011 33.0782V16.8927C37.0011 16.6092 36.9211 16.3314 36.7702 16.0913C36.6194 15.8512 36.4038 15.6586 36.1483 15.5356L31.1877 13.1486C30.9074 13.0137 30.5921 12.9693 30.2855 13.0215C29.9788 13.0737 29.696 13.22 29.4761 13.44L19.9793 22.104L15.8426 18.964C15.6561 18.8224 15.4258 18.7505 15.1917 18.7609C14.9577 18.7713 14.7347 18.8633 14.5614 19.021L13.2347 20.2279C12.7972 20.6258 12.7967 21.314 13.2335 21.7126L16.821 24.9855L13.2335 28.2583C12.7967 28.6569 12.7972 29.3451 13.2347 29.743L14.5614 30.9498C14.7347 31.1075 14.9577 31.1995 15.1917 31.21C15.4257 31.2204 15.656 31.1485 15.8426 31.0069L19.9793 27.8668L29.4761 36.5309C29.6229 36.678 29.7987 36.7929 29.9923 36.8683ZM30.9811 19.5156L23.7752 24.9855L30.9811 30.4552V19.5156Z" fill="white"/>
</mask>
<g mask="url(#mask2_1421_10938)">
<path d="M31.1833 36.8236C30.9029 36.9585 30.5874 37.003 30.2806 36.9508C29.9738 36.8986 29.6908 36.7524 29.4707 36.5323C30.0264 37.0879 30.9767 36.6944 30.9767 35.9084V14.0651C30.9767 13.2791 30.0264 12.8856 29.4707 13.4413C29.6908 13.2212 29.9738 13.0749 30.2806 13.0227C30.5874 12.9705 30.9028 13.015 31.1833 13.1499L36.147 15.5369C36.4026 15.6599 36.6183 15.8525 36.7692 16.0926C36.9202 16.3326 37.0003 16.6105 37.0003 16.8941V33.0796C37.0003 33.6584 36.6686 34.186 36.147 34.4367L31.1833 36.8236Z" fill="#1F9CF0"/>
</g>
<mask id="mask3_1421_10938" style="mask-type:luminance" maskUnits="userSpaceOnUse" x="12" y="13" width="26" height="24">
<path d="M29.9923 36.8683C30.1841 36.9431 30.3891 36.9776 30.5948 36.9697C30.8004 36.9618 31.0022 36.9116 31.1876 36.8224L36.1483 34.4354C36.4038 34.3124 36.6194 34.1198 36.7703 33.8797C36.9211 33.6396 37.0011 33.3617 37.0011 33.0782V16.8927C37.0011 16.6092 36.9211 16.3314 36.7702 16.0913C36.6194 15.8512 36.4038 15.6586 36.1483 15.5356L31.1877 13.1486C30.9074 13.0137 30.5921 12.9693 30.2855 13.0215C29.9788 13.0737 29.696 13.22 29.4761 13.44L19.9793 22.104L15.8426 18.964C15.6561 18.8224 15.4258 18.7505 15.1917 18.7609C14.9577 18.7713 14.7347 18.8633 14.5614 19.021L13.2347 20.2279C12.7972 20.6258 12.7967 21.314 13.2335 21.7126L16.821 24.9855L13.2335 28.2583C12.7967 28.6569 12.7972 29.3451 13.2347 29.743L14.5614 30.9498C14.7347 31.1075 14.9577 31.1995 15.1917 31.21C15.4257 31.2204 15.656 31.1485 15.8426 31.0069L19.9793 27.8668L29.4761 36.5309C29.6229 36.678 29.7987 36.7929 29.9923 36.8683ZM30.9811 19.5156L23.7752 24.9855L30.9811 30.4552V19.5156Z" fill="white"/>
</mask>
<g mask="url(#mask3_1421_10938)">
<path d="M29.9923 36.8681C30.1841 36.9429 30.3891 36.9774 30.5948 36.9695C30.8004 36.9616 31.0022 36.9115 31.1876 36.8222L36.1483 34.4351C36.4037 34.3122 36.6193 34.1195 36.7702 33.8794C36.9211 33.6394 37.0011 33.3616 37.0011 33.078V16.8926C37.0011 16.609 36.9211 16.3312 36.7702 16.0911C36.6194 15.8511 36.4038 15.6584 36.1483 15.5354L31.1875 13.1483C30.9072 13.0135 30.592 12.9691 30.2853 13.0213C29.9787 13.0735 29.6959 13.2197 29.476 13.4397L19.9793 22.1039L15.8426 18.9638C15.6561 18.8222 15.4258 18.7503 15.1917 18.7607C14.9577 18.7712 14.7347 18.8632 14.5614 19.0208L13.2347 20.2277C12.7972 20.6256 12.7967 21.3139 13.2335 21.7124L16.821 24.9853L13.2335 28.2581C12.7967 28.6567 12.7972 29.3449 13.2347 29.7429L14.5614 30.9497C14.7347 31.1073 14.9577 31.1994 15.1917 31.2098C15.4257 31.2202 15.656 31.1484 15.8426 31.0067L19.9793 27.8666L29.476 36.5307C29.6229 36.6777 29.7987 36.7926 29.9923 36.8681ZM30.9811 19.5154L23.7752 24.9853L30.9811 30.455V19.5154Z" fill="url(#paint0_linear_1421_10938)" fill-opacity="0.25"/>
</g>
</g>
<defs>
<linearGradient id="paint0_linear_1421_10938" x1="1217.65" y1="13" x2="1217.65" y2="2410.06" gradientUnits="userSpaceOnUse">
<stop stop-color="white"/>
<stop offset="1" stop-color="white" stop-opacity="0"/>
</linearGradient>
<clipPath id="clip0_1421_10938">
<rect width="24.19" height="24" fill="white" transform="translate(12.9053 13)"/>
</clipPath>
</defs>
</svg>
