<svg width="50" height="50" viewBox="0 0 50 50" fill="none" xmlns="http://www.w3.org/2000/svg">
<rect x="0.5" y="0.5" width="49" height="49" rx="24.5" fill="white"/>
<rect x="0.5" y="0.5" width="49" height="49" rx="24.5" stroke="#6945FF"/>
<g filter="url(#filter0_d_1421_10879)">
<path d="M13.5126 24.8563C13.512 26.8728 14.043 28.8417 15.0527 30.5771L13.416 36.5066L19.5315 34.9156C21.223 35.8292 23.1181 36.308 25.044 36.3081H25.0491C31.4067 36.3081 36.582 31.1748 36.5847 24.8653C36.586 21.8079 35.3871 18.9329 33.2089 16.77C31.0311 14.6072 28.1347 13.4155 25.0486 13.4141C18.6902 13.4141 13.5153 18.5471 13.5127 24.8563" fill="url(#paint0_linear_1421_10879)"/>
<path d="M13.1003 24.8527C13.0997 26.9417 13.6497 28.981 14.6954 30.7786L13 36.9207L19.3348 35.2726C21.0802 36.2168 23.0454 36.7147 25.0451 36.7154H25.0502C31.636 36.7154 36.9972 31.3975 37 24.8621C37.0011 21.6949 35.7591 18.7166 33.5031 16.4761C31.2468 14.2359 28.2468 13.0013 25.0502 13C18.4634 13 13.1029 18.3172 13.1003 24.8527ZM16.8729 30.469L16.6364 30.0965C15.6421 28.5277 15.1172 26.7149 15.118 24.8534C15.1201 19.4213 19.5754 15.0019 25.054 15.0019C27.7071 15.003 30.2005 16.0292 32.0759 17.8912C33.9512 19.7533 34.9831 22.2287 34.9824 24.8614C34.98 30.2935 30.5245 34.7135 25.0502 34.7135H25.0463C23.2638 34.7126 21.5157 34.2376 19.9911 33.34L19.6283 33.1265L15.8691 34.1045L16.8729 30.469Z" fill="url(#paint1_linear_1421_10879)"/>
<path d="M22.0638 19.8975C21.8401 19.4042 21.6047 19.3942 21.392 19.3856C21.2178 19.3781 21.0187 19.3787 20.8198 19.3787C20.6206 19.3787 20.2971 19.453 20.0236 19.7493C19.7499 20.0458 18.9785 20.7625 18.9785 22.2201C18.9785 23.6776 20.0485 25.0864 20.1976 25.2843C20.347 25.4817 22.2632 28.5686 25.2981 29.7562C27.8204 30.743 28.3336 30.5468 28.881 30.4973C29.4285 30.448 30.6477 29.7808 30.8964 29.089C31.1453 28.3973 31.1453 27.8043 31.0707 27.6804C30.996 27.557 30.7969 27.4829 30.4983 27.3348C30.1997 27.1867 28.7317 26.4698 28.458 26.371C28.1843 26.2722 27.9853 26.2229 27.7861 26.5195C27.587 26.8157 27.0152 27.4829 26.841 27.6804C26.6669 27.8785 26.4926 27.9031 26.1941 27.755C25.8953 27.6063 24.9337 27.2938 23.7929 26.2846C22.9052 25.4993 22.306 24.5296 22.1318 24.2329C21.9576 23.9367 22.1131 23.7762 22.2629 23.6285C22.397 23.4958 22.5615 23.2826 22.711 23.1096C22.8599 22.9366 22.9095 22.8132 23.0091 22.6156C23.1088 22.4178 23.0589 22.2448 22.9844 22.0966C22.9095 21.9484 22.3293 20.4832 22.0638 19.8975Z" fill="white"/>
</g>
<defs>
<filter id="filter0_d_1421_10879" x="5" y="7" width="40" height="40" filterUnits="userSpaceOnUse" color-interpolation-filters="sRGB">
<feFlood flood-opacity="0" result="BackgroundImageFix"/>
<feColorMatrix in="SourceAlpha" type="matrix" values="0 0 0 0 0 0 0 0 0 0 0 0 0 0 0 0 0 0 127 0" result="hardAlpha"/>
<feOffset dy="2"/>
<feGaussianBlur stdDeviation="4"/>
<feComposite in2="hardAlpha" operator="out"/>
<feColorMatrix type="matrix" values="0 0 0 0 0 0 0 0 0 0 0 0 0 0 0 0 0 0 0.25 0"/>
<feBlend mode="normal" in2="BackgroundImageFix" result="effect1_dropShadow_1421_10879"/>
<feBlend mode="normal" in="SourceGraphic" in2="effect1_dropShadow_1421_10879" result="shape"/>
</filter>
<linearGradient id="paint0_linear_1421_10879" x1="1171.85" y1="2322.67" x2="1171.85" y2="13.4141" gradientUnits="userSpaceOnUse">
<stop stop-color="#1FAF38"/>
<stop offset="1" stop-color="#60D669"/>
</linearGradient>
<linearGradient id="paint1_linear_1421_10879" x1="1213" y1="2405.07" x2="1213" y2="13" gradientUnits="userSpaceOnUse">
<stop stop-color="#F9F9F9"/>
<stop offset="1" stop-color="white"/>
</linearGradient>
</defs>
</svg>
