<svg width="37" height="37" viewBox="0 0 37 37" fill="currentColor" xmlns="http://www.w3.org/2000/svg">
<g id="heroicons-solid/musical-note">
<path id="Vector (Stroke)" fill-rule="evenodd" clip-rule="evenodd" d="M30.7588 2.54567C31.0484 2.76416 31.2188 3.10594 31.2188 3.46876V9.22447C31.2191 9.24193 31.2191 9.25934 31.2188 9.2767V25.1335C31.2188 27.1985 29.8499 29.0133 27.8643 29.5806L25.8294 30.162C23.3152 30.8803 20.8125 28.9925 20.8125 26.3778C20.8125 24.6206 21.9774 23.0763 23.6669 22.5935L27.229 21.5758C28.2218 21.2922 28.9062 20.3848 28.9062 19.3523V10.7829L15.0312 14.7472V29.7585C15.0312 31.8235 13.6624 33.6383 11.6768 34.2056L9.64186 34.787C7.1277 35.5053 4.625 33.6175 4.625 31.0028C4.625 29.2456 5.78986 27.7013 7.47945 27.2185L11.0415 26.2008C12.0343 25.9172 12.7188 25.0098 12.7188 23.9773V13.9006C12.7184 13.8831 12.7184 13.8657 12.7188 13.8483V8.09376C12.7188 7.57752 13.061 7.12382 13.5574 6.982L29.7449 2.357C30.0937 2.25732 30.4691 2.32718 30.7588 2.54567Z" fill="#444444"/>
</g>
</svg>
