<svg width="48" height="48" viewBox="0 0 48 48" fill="none" xmlns="http://www.w3.org/2000/svg">
<rect width="48" height="48" rx="24" fill="#FFDC00"/>
<path fill-rule="evenodd" clip-rule="evenodd" d="M19.5075 10.0013C18.3389 10.0005 17.2003 10.3717 16.2567 11.0611C15.3131 11.7505 14.6134 12.7225 14.2591 13.8361C13.9047 14.9497 13.9141 16.1472 14.2858 17.2552C14.6575 18.3631 15.3722 19.324 16.3265 19.9986C15.608 20.5068 15.0221 21.1801 14.6179 21.9619C14.2138 22.7437 14.0033 23.6111 14.0041 24.4911C14.0041 26.3458 14.922 27.9875 16.3292 28.9836C15.5583 29.5293 14.9408 30.2642 14.5361 31.1176C14.1315 31.971 13.9533 32.9142 14.0186 33.8564C14.084 34.7986 14.3907 35.7082 14.9094 36.4975C15.428 37.2869 16.141 37.9295 16.9799 38.3635C17.8187 38.7975 18.7552 39.0083 19.6991 38.9757C20.643 38.943 21.5627 38.668 22.3695 38.177C23.1764 37.6861 23.8433 36.9958 24.3062 36.1725C24.769 35.3492 25.0122 34.4206 25.0123 33.4761V28.7531C25.5848 29.217 26.2447 29.5611 26.9527 29.7652C27.6608 29.9692 28.4026 30.029 29.1342 29.9409C29.8658 29.8529 30.5722 29.6188 31.2116 29.2526C31.8511 28.8864 32.4105 28.3956 32.8566 27.8091C33.3028 27.2227 33.6266 26.5526 33.8089 25.8387C33.9912 25.1247 34.0283 24.3814 33.918 23.6529C33.8077 22.9243 33.5521 22.2253 33.1666 21.5974C32.781 20.9694 32.2733 20.4253 31.6735 19.9973C32.6278 19.3227 33.3425 18.3618 33.7142 17.2538C34.0859 16.1459 34.0953 14.9484 33.7409 13.8347C33.3866 12.7211 32.6869 11.7492 31.7433 11.0597C30.7997 10.3703 29.6611 9.99914 28.4925 10L19.5075 10.0013ZM22.9891 27.9727H19.5075C19.0503 27.9727 18.5976 27.8827 18.1752 27.7077C17.7527 27.5327 17.3689 27.2763 17.0456 26.953C16.7223 26.6297 16.4659 26.2459 16.2909 25.8235C16.116 25.4011 16.0259 24.9483 16.0259 24.4911C16.0259 24.0339 16.116 23.5812 16.2909 23.1588C16.4659 22.7364 16.7223 22.3526 17.0456 22.0293C17.3689 21.706 17.7527 21.4495 18.1752 21.2746C18.5976 21.0996 19.0503 21.0095 19.5075 21.0095H22.9891V24.4911V27.9727ZM19.5075 18.9877H22.9891V12.0232H19.5075C18.5839 12.0232 17.6982 12.3901 17.0452 13.0431C16.3921 13.6962 16.0252 14.5819 16.0252 15.5054C16.0252 16.429 16.3921 17.3147 17.0452 17.9678C17.6982 18.6208 18.5839 18.9877 19.5075 18.9877ZM31.9754 15.5048C31.9758 16.4277 31.6097 17.313 30.9576 17.9661C30.3055 18.6192 29.4208 18.9866 28.4979 18.9877H25.0109V12.0232H28.4939C28.9511 12.0232 29.4038 12.1132 29.8262 12.2882C30.2486 12.4632 30.6324 12.7196 30.9557 13.0429C31.279 13.3662 31.5355 13.75 31.7104 14.1724C31.8854 14.5948 31.9754 15.0476 31.9754 15.5048ZM25.0109 24.4871C25.012 23.5651 25.3787 22.6812 26.0306 22.0293C26.6826 21.3773 27.5665 21.0106 28.4885 21.0095H28.4965C29.1848 21.0103 29.8574 21.2151 30.4293 21.598C31.0012 21.9808 31.4468 22.5246 31.7098 23.1606C31.9729 23.7967 32.0415 24.4963 31.907 25.1713C31.7725 25.8463 31.441 26.4663 30.9544 26.953C30.4677 27.4396 29.8477 27.7711 29.1727 27.9056C28.4977 28.0401 27.798 27.9715 27.162 27.7085C26.526 27.4454 25.9822 26.9998 25.5994 26.4279C25.2165 25.856 25.0117 25.1834 25.0109 24.4952V24.4871ZM19.5075 29.9945C18.819 29.9945 18.1459 30.1987 17.5734 30.5812C17.0009 30.9637 16.5546 31.5074 16.2911 32.1435C16.0275 32.7796 15.9585 33.4795 16.0927 34.1549C16.2269 34.8302 16.5584 35.4505 17.0452 35.9375C17.5319 36.4245 18.1522 36.7562 18.8274 36.8906C19.5027 37.0251 20.2027 36.9564 20.8389 36.6931C21.4751 36.4298 22.019 35.9837 22.4017 35.4114C22.7844 34.839 22.9888 34.166 22.9891 33.4775V29.9945H19.5075Z" fill="#444444"/>
</svg>
