<svg width="48" height="48" viewBox="0 0 48 48" fill="none" xmlns="http://www.w3.org/2000/svg">
<rect width="48" height="48" rx="24" fill="#FFDC00"/>
<circle cx="24" cy="24" r="19" fill="#444444"/>
<path d="M24 19.04C23.019 19.04 22.06 19.3309 21.2444 19.8759C20.4287 20.4209 19.793 21.1956 19.4176 22.1019C19.0421 23.0082 18.9439 24.0055 19.1353 24.9676C19.3267 25.9298 19.7991 26.8136 20.4928 27.5072C21.1864 28.2009 22.0702 28.6733 23.0324 28.8647C23.9945 29.0561 24.9918 28.9579 25.8981 28.5824C26.8044 28.207 27.5791 27.5713 28.1241 26.7556C28.6691 25.94 28.96 24.981 28.96 24C28.96 23.3486 28.8317 22.7037 28.5824 22.1019C28.3332 21.5001 27.9678 20.9533 27.5072 20.4928C27.0467 20.0322 26.4999 19.6668 25.8981 19.4176C25.2963 19.1683 24.6514 19.04 24 19.04ZM43.86 14.14C43.8495 12.5955 43.5651 11.0651 43.02 9.62C42.6186 8.56252 41.9974 7.60219 41.1976 6.80237C40.3978 6.00255 39.4375 5.38144 38.38 4.98C36.9349 4.43493 35.4045 4.15052 33.86 4.14C31.28 4 30.52 4 24 4C17.48 4 16.72 4 14.14 4.14C12.5955 4.15052 11.0651 4.43493 9.62 4.98C8.56252 5.38144 7.60219 6.00255 6.80237 6.80237C6.00255 7.60219 5.38144 8.56252 4.98 9.62C4.43493 11.0651 4.15052 12.5955 4.14 14.14C4 16.72 4 17.48 4 24C4 30.52 4 31.28 4.14 33.86C4.16153 35.4099 4.44555 36.945 4.98 38.4C5.37966 39.4526 6.00026 40.4074 6.8 41.2C7.59639 42.0046 8.55878 42.6257 9.62 43.02C11.0651 43.5651 12.5955 43.8495 14.14 43.86C16.72 44 17.48 44 24 44C30.52 44 31.28 44 33.86 43.86C35.4045 43.8495 36.9349 43.5651 38.38 43.02C39.4412 42.6257 40.4036 42.0046 41.2 41.2C41.9997 40.4074 42.6203 39.4526 43.02 38.4C43.5645 36.9478 43.8489 35.4109 43.86 33.86C44 31.28 44 30.52 44 24C44 17.48 44 16.72 43.86 14.14ZM38.78 30.14C38.7158 31.3742 38.4524 32.5899 38 33.74C37.6117 34.6994 37.0345 35.5709 36.3027 36.3027C35.5709 37.0345 34.6994 37.6117 33.74 38C32.579 38.4272 31.3565 38.6636 30.12 38.7H17.88C16.6435 38.6636 15.421 38.4272 14.26 38C13.2682 37.6314 12.3726 37.0434 11.64 36.28C10.9153 35.5625 10.3557 34.6957 10 33.74C9.57111 32.5802 9.34121 31.3563 9.32 30.12V17.88C9.34121 16.6437 9.57111 15.4198 10 14.26C10.3686 13.2682 10.9565 12.3726 11.72 11.64C12.4407 10.9192 13.3065 10.3602 14.26 10C15.421 9.57281 16.6435 9.33642 17.88 9.3H30.12C31.3565 9.33642 32.579 9.57281 33.74 10C34.7318 10.3686 35.6274 10.9565 36.36 11.72C37.0847 12.4375 37.6443 13.3043 38 14.26C38.4272 15.421 38.6636 16.6435 38.7 17.88V24C38.7 28.12 38.84 28.54 38.78 30.12V30.14ZM35.58 15.26C35.3419 14.614 34.9664 14.0273 34.4796 13.5404C33.9927 13.0536 33.406 12.6781 32.76 12.44C31.8729 12.1325 30.9387 11.9836 30 12H18C17.0565 12.0092 16.1221 12.1853 15.24 12.52C14.6039 12.7473 14.0234 13.1074 13.5372 13.5764C13.0509 14.0454 12.6701 14.6125 12.42 15.24C12.1296 16.1307 11.9877 17.0632 12 18V30C12.0198 30.9424 12.1955 31.875 12.52 32.76C12.7581 33.406 13.1336 33.9927 13.6204 34.4796C14.1073 34.9664 14.694 35.3419 15.34 35.58C16.1933 35.8938 17.0913 36.0694 18 36.1H30C30.9435 36.0908 31.8779 35.9147 32.76 35.58C33.406 35.3419 33.9927 34.9664 34.4796 34.4796C34.9664 33.9927 35.3419 33.406 35.58 32.76C35.9147 31.8779 36.0908 30.9435 36.1 30V18C36.1006 17.0556 35.9242 16.1194 35.58 15.24V15.26ZM24 31.64C22.9976 31.64 22.0051 31.4422 21.0793 31.0581C20.1535 30.6739 19.3126 30.1108 18.6048 29.4011C17.8969 28.6914 17.3361 27.849 16.9543 26.9222C16.5725 25.9954 16.3774 25.0024 16.38 24C16.38 22.4881 16.8286 21.0102 17.669 19.7534C18.5094 18.4966 19.7037 17.5173 21.1009 16.9397C22.4981 16.362 24.0353 16.2119 25.5179 16.5083C27.0004 16.8047 28.3617 17.5343 29.4294 18.6048C30.497 19.6753 31.2231 21.0385 31.5156 22.5218C31.8082 24.0051 31.654 25.5419 31.0727 26.9376C30.4914 28.3333 29.509 29.5251 28.25 30.3622C26.991 31.1992 25.5119 31.644 24 31.64ZM32 17.86C31.5579 17.8132 31.1487 17.6044 30.8514 17.2739C30.554 16.9434 30.3895 16.5146 30.3895 16.07C30.3895 15.6254 30.554 15.1966 30.8514 14.8661C31.1487 14.5356 31.5579 14.3268 32 14.28C32.4421 14.3268 32.8513 14.5356 33.1486 14.8661C33.446 15.1966 33.6105 15.6254 33.6105 16.07C33.6105 16.5146 33.446 16.9434 33.1486 17.2739C32.8513 17.6044 32.4421 17.8132 32 17.86Z" fill="#FFDC00"/>
</svg>
