<svg width="24" height="24" viewBox="0 0 24 24" fill="none" xmlns="http://www.w3.org/2000/svg">
<path d="M20.25 3.75H3.75C3.35218 3.75 2.97064 3.90804 2.68934 4.18934C2.40804 4.47064 2.25 4.85218 2.25 5.25V18.75C2.25 19.1478 2.40804 19.5294 2.68934 19.8107C2.97064 20.092 3.35218 20.25 3.75 20.25H20.25C20.6478 20.25 21.0294 20.092 21.3107 19.8107C21.592 19.5294 21.75 19.1478 21.75 18.75V5.25C21.75 4.85218 21.592 4.47064 21.3107 4.18934C21.0294 3.90804 20.6478 3.75 20.25 3.75ZM6 8.625C6 8.82391 5.92098 9.01468 5.78033 9.15533C5.63968 9.29598 5.44891 9.375 5.25 9.375C5.05109 9.375 4.86032 9.29598 4.71967 9.15533C4.57902 9.01468 4.5 8.82391 4.5 8.625V7.5C4.5 7.30109 4.57902 7.11032 4.71967 6.96967C4.86032 6.82902 5.05109 6.75 5.25 6.75H12C12.1989 6.75 12.3897 6.82902 12.5303 6.96967C12.671 7.11032 12.75 7.30109 12.75 7.5V8.625C12.75 8.82391 12.671 9.01468 12.5303 9.15533C12.3897 9.29598 12.1989 9.375 12 9.375C11.8011 9.375 11.6103 9.29598 11.4697 9.15533C11.329 9.01468 11.25 8.82391 11.25 8.625V8.25H9.375V12.75H9.75C9.94891 12.75 10.1397 12.829 10.2803 12.9697C10.421 13.1103 10.5 13.3011 10.5 13.5C10.5 13.6989 10.421 13.8897 10.2803 14.0303C10.1397 14.171 9.94891 14.25 9.75 14.25H7.5C7.30109 14.25 7.11032 14.171 6.96967 14.0303C6.82902 13.8897 6.75 13.6989 6.75 13.5C6.75 13.3011 6.82902 13.1103 6.96967 12.9697C7.11032 12.829 7.30109 12.75 7.5 12.75H7.875V8.25H6V8.625ZM18.75 17.25H7.5C7.30109 17.25 7.11032 17.171 6.96967 17.0303C6.82902 16.8897 6.75 16.6989 6.75 16.5C6.75 16.3011 6.82902 16.1103 6.96967 15.9697C7.11032 15.829 7.30109 15.75 7.5 15.75H18.75C18.9489 15.75 19.1397 15.829 19.2803 15.9697C19.421 16.1103 19.5 16.3011 19.5 16.5C19.5 16.6989 19.421 16.8897 19.2803 17.0303C19.1397 17.171 18.9489 17.25 18.75 17.25ZM18.75 14.25H12.75C12.5511 14.25 12.3603 14.171 12.2197 14.0303C12.079 13.8897 12 13.6989 12 13.5C12 13.3011 12.079 13.1103 12.2197 12.9697C12.3603 12.829 12.5511 12.75 12.75 12.75H18.75C18.9489 12.75 19.1397 12.829 19.2803 12.9697C19.421 13.1103 19.5 13.3011 19.5 13.5C19.5 13.6989 19.421 13.8897 19.2803 14.0303C19.1397 14.171 18.9489 14.25 18.75 14.25ZM18.75 11.25H14.25C14.0511 11.25 13.8603 11.171 13.7197 11.0303C13.579 10.8897 13.5 10.6989 13.5 10.5C13.5 10.3011 13.579 10.1103 13.7197 9.96967C13.8603 9.82902 14.0511 9.75 14.25 9.75H18.75C18.9489 9.75 19.1397 9.82902 19.2803 9.96967C19.421 10.1103 19.5 10.3011 19.5 10.5C19.5 10.6989 19.421 10.8897 19.2803 11.0303C19.1397 11.171 18.9489 11.25 18.75 11.25Z" fill="#9B9B9B"/>
</svg>
