<svg width="24" height="24" viewBox="0 0 24 24" fill="none" xmlns="http://www.w3.org/2000/svg">
<path d="M20.25 3.75H3.75C3.35218 3.75 2.97064 3.90804 2.68934 4.18934C2.40804 4.47064 2.25 4.85218 2.25 5.25V18.75C2.25 19.1478 2.40804 19.5294 2.68934 19.8107C2.97064 20.092 3.35218 20.25 3.75 20.25H5.00531C5.14726 20.25 5.2863 20.2098 5.40628 20.134C5.52627 20.0581 5.62227 19.9498 5.68313 19.8216C6.04783 19.0516 6.62363 18.4009 7.34357 17.9453C8.06351 17.4897 8.898 17.2478 9.75 17.2478C10.602 17.2478 11.4365 17.4897 12.1564 17.9453C12.8764 18.4009 13.4522 19.0516 13.8169 19.8216C13.8777 19.9498 13.9737 20.0581 14.0937 20.134C14.2137 20.2098 14.3527 20.25 14.4947 20.25H20.25C20.6478 20.25 21.0294 20.092 21.3107 19.8107C21.592 19.5294 21.75 19.1478 21.75 18.75V5.25C21.75 4.85218 21.592 4.47064 21.3107 4.18934C21.0294 3.90804 20.6478 3.75 20.25 3.75ZM9.75 15.75C9.15666 15.75 8.57664 15.5741 8.08329 15.2444C7.58994 14.9148 7.20542 14.4462 6.97836 13.8981C6.7513 13.3499 6.69189 12.7467 6.80764 12.1647C6.9234 11.5828 7.20912 11.0482 7.62868 10.6287C8.04824 10.2091 8.58279 9.9234 9.16473 9.80764C9.74667 9.69189 10.3499 9.7513 10.8981 9.97836C11.4462 10.2054 11.9148 10.5899 12.2444 11.0833C12.5741 11.5766 12.75 12.1567 12.75 12.75C12.75 13.5456 12.4339 14.3087 11.8713 14.8713C11.3087 15.4339 10.5456 15.75 9.75 15.75ZM20.25 18.75H14.9466C14.6196 18.1862 14.2029 17.6796 13.7128 17.25H18C18.1989 17.25 18.3897 17.171 18.5303 17.0303C18.671 16.8897 18.75 16.6989 18.75 16.5V7.5C18.75 7.30109 18.671 7.11032 18.5303 6.96967C18.3897 6.82902 18.1989 6.75 18 6.75H6C5.80109 6.75 5.61032 6.82902 5.46967 6.96967C5.32902 7.11032 5.25 7.30109 5.25 7.5V16.5C5.24992 16.6663 5.30513 16.828 5.40696 16.9595C5.50878 17.091 5.65145 17.185 5.8125 17.2266C5.31114 17.6609 4.88563 18.1758 4.55344 18.75H3.75V5.25H20.25V18.75Z" fill="#444444"/>
</svg>
