<svg width="24" height="24" viewBox="0 0 24 24" fill="none" xmlns="http://www.w3.org/2000/svg">
<path d="M8.18246 14.0959C8.18246 12.7123 8.17183 11.3287 8.18246 9.94508C8.19309 8.2528 9.25623 7.18848 10.936 7.18848C13.7001 7.18848 16.4537 7.18848 19.2178 7.18848C20.855 7.18848 21.9713 8.2528 21.982 9.90251C22.0032 12.723 22.0032 15.5328 21.982 18.3533C21.9713 19.9285 20.8444 21.0034 19.271 21.0141C16.4749 21.0247 13.6789 21.0247 10.8828 21.0141C9.29875 21.0141 8.20372 19.9285 8.19309 18.3533C8.17183 16.9377 8.18246 15.5115 8.18246 14.0959ZM20.2278 14.1598C20.2278 12.7762 20.2278 11.3926 20.2278 10.0196C20.2278 9.24262 19.9514 8.95526 19.1753 8.95526C16.4324 8.94461 13.6895 8.94461 10.9466 8.95526C10.213 8.95526 9.91537 9.26391 9.91537 9.98765C9.91537 12.7336 9.91537 15.4796 9.91537 18.2255C9.91537 18.9599 10.213 19.2579 10.9466 19.2686C13.7108 19.2792 16.4643 19.2792 19.2284 19.2686C19.9407 19.2686 20.2278 18.9706 20.2278 18.2575C20.2278 16.8845 20.2278 15.5221 20.2278 14.1598Z" fill="#444444"/>
<path d="M9.95556 2.00473C11.3589 2.00473 12.7516 1.99409 14.1549 2.00473C15.5264 2.01537 16.5789 2.92005 16.8022 4.22917C16.9085 4.87841 16.6321 5.368 16.1005 5.46379C15.5902 5.54894 15.2075 5.21899 15.0692 4.56976C14.9523 3.99502 14.7078 3.76087 14.1337 3.76087C11.3164 3.75022 8.5097 3.75022 5.69239 3.76087C5.06514 3.76087 4.76746 4.10145 4.75683 4.79326C4.73557 5.66601 4.7462 6.52812 4.7462 7.40086C4.7462 9.18893 4.7462 10.977 4.7462 12.7651C4.7462 13.723 4.86314 13.8507 5.7987 14.1061C6.24522 14.2232 6.48974 14.5318 6.46848 15.0001C6.45785 15.4472 6.10701 15.7665 5.6286 15.7984C4.32095 15.8835 3.04518 14.7554 3.02392 13.393C2.99203 10.4023 2.99203 7.40086 3.02392 4.41011C3.04518 3.06906 4.24653 2.02602 5.70302 2.01537C7.11699 1.99409 8.54159 2.00473 9.95556 2.00473Z" fill="#444444"/>
<path d="M20.2401 14.1597C20.2401 15.522 20.2401 16.8844 20.2401 18.2467C20.2401 18.9492 19.9531 19.2578 19.2408 19.2578C16.4766 19.2685 13.7231 19.2685 10.959 19.2578C10.2254 19.2578 9.92773 18.9492 9.92773 18.2148C9.92773 15.4688 9.92773 12.7229 9.92773 9.9769C9.92773 9.25316 10.236 8.94451 10.959 8.94451C13.7019 8.93386 16.4448 8.93386 19.1876 8.94451C19.9637 8.94451 20.2401 9.23187 20.2401 10.0088C20.2401 11.3925 20.2401 12.7761 20.2401 14.1597ZM15.1158 10.6474C14.6268 10.6368 14.2441 11.0093 14.2122 11.5627C14.1909 11.9885 14.1909 12.4142 14.2015 12.8399C14.2015 13.1273 14.074 13.255 13.7869 13.2444C13.3829 13.2337 12.9683 13.2337 12.5643 13.2444C12.0008 13.2657 11.6288 13.6169 11.6288 14.1171C11.6394 14.5961 12.0008 14.9367 12.5324 14.9579C12.9577 14.9792 13.3829 14.9686 13.8082 14.9686C14.074 14.9686 14.1909 15.0857 14.1909 15.3517C14.1909 15.7775 14.1803 16.2032 14.2015 16.6289C14.2334 17.2143 14.5843 17.5549 15.0946 17.5443C15.6049 17.5336 15.9344 17.193 15.9557 16.597C15.9663 16.2032 15.977 15.8201 15.9557 15.4263C15.9451 15.0857 16.062 14.9367 16.4129 14.9579C16.8169 14.9792 17.2315 14.9686 17.6355 14.9579C18.1883 14.9367 18.5179 14.6067 18.5179 14.1065C18.5179 13.6063 18.1883 13.2657 17.6461 13.2444C17.2208 13.2337 16.7956 13.2337 16.3703 13.2444C16.0727 13.255 15.9557 13.1273 15.9663 12.8399C15.977 12.4142 15.977 11.9885 15.9557 11.5627C15.9344 11.0199 15.5836 10.6581 15.1158 10.6474Z" fill="#444444"/>
</svg>
