<svg id="Layer_1" data-name="Layer 1" xmlns="http://www.w3.org/2000/svg" viewBox="0 0 141.73 141.73"><defs><style>.cls-1{fill:#6945ff;}.cls-2{fill:none;stroke:#ffdc00;stroke-linecap:round;stroke-miterlimit:10;stroke-width:3px;}.cls-3{fill:#fff;}</style></defs><title>favicon LinguaLab</title><rect class="cls-1" x="-2.99" y="-2.99" width="147.71" height="147.71"/><path class="cls-2" d="M44.24,101.32s26.09,33,56.27.73"/><path class="cls-3" d="M90.75,94.19a69.88,69.88,0,0,1-23.93,4.09Q57,98.28,53,91.35q-3-5.35-3-15.95,0-6.21.94-18.38t1-18.37c0-.77-.06-2-.16-3.67s-.16-2.94-.16-3.78a21.73,21.73,0,0,1,.21-2.84,6.45,6.45,0,0,1,5.14-2.52q2.94,0,4.52,3.78a15.82,15.82,0,0,1,1.26,6.3q0,7.14-1.37,21.21t-1.36,21.1q0,12.39,7,12.39,3.15,0,9-2.15t9-2.16a5,5,0,0,1,4.51,2.63A10.05,10.05,0,0,1,90.75,94.19Z"/><path class="cls-3" d="M97.05,91a4.94,4.94,0,0,1,1.58-3.78,5.47,5.47,0,0,1,3.88-1.47,8,8,0,0,1,5.09,1.89A5.71,5.71,0,0,1,110,92.3a4.9,4.9,0,0,1-1.62,3.78,5.85,5.85,0,0,1-4,1.46,7.67,7.67,0,0,1-5-1.83A5.84,5.84,0,0,1,97.05,91Z"/><path class="cls-3" d="M31.45,91A4.94,4.94,0,0,1,33,87.21a5.47,5.47,0,0,1,3.88-1.47A8,8,0,0,1,42,87.63a5.71,5.71,0,0,1,2.36,4.62A4.9,4.9,0,0,1,42.74,96a5.83,5.83,0,0,1-4.05,1.46,7.69,7.69,0,0,1-5-1.83A5.86,5.86,0,0,1,31.45,91Z"/></svg>