<svg width="24" height="24" viewBox="0 0 24 24" fill="none" xmlns="http://www.w3.org/2000/svg">
<path d="M21.75 8.11219V5.25C21.75 4.85218 21.592 4.47064 21.3107 4.18934C21.0294 3.90804 20.6478 3.75 20.25 3.75H3.75C3.35218 3.75 2.97064 3.90804 2.68934 4.18934C2.40804 4.47064 2.25 4.85218 2.25 5.25V17.25C2.25 17.6478 2.40804 18.0294 2.68934 18.3107C2.97064 18.592 3.35218 18.75 3.75 18.75H15V21C14.9988 21.1322 15.0326 21.2624 15.0979 21.3774C15.1633 21.4923 15.2579 21.588 15.3721 21.6546C15.4863 21.7212 15.6161 21.7565 15.7483 21.7567C15.8805 21.757 16.0105 21.7224 16.125 21.6562L18.375 20.3681L20.625 21.6562C20.7395 21.7224 20.8695 21.757 21.0017 21.7567C21.1339 21.7565 21.2637 21.7212 21.3779 21.6546C21.4921 21.588 21.5867 21.4923 21.6521 21.3774C21.7174 21.2624 21.7512 21.1322 21.75 21V15.1378C22.2241 14.6838 22.6014 14.1385 22.8592 13.5348C23.1169 12.9311 23.2498 12.2814 23.2498 11.625C23.2498 10.9686 23.1169 10.3189 22.8592 9.71521C22.6014 9.11149 22.2241 8.5662 21.75 8.11219ZM12 13.5H6.75C6.55109 13.5 6.36032 13.421 6.21967 13.2803C6.07902 13.1397 6 12.9489 6 12.75C6 12.5511 6.07902 12.3603 6.21967 12.2197C6.36032 12.079 6.55109 12 6.75 12H12C12.1989 12 12.3897 12.079 12.5303 12.2197C12.671 12.3603 12.75 12.5511 12.75 12.75C12.75 12.9489 12.671 13.1397 12.5303 13.2803C12.3897 13.421 12.1989 13.5 12 13.5ZM12 10.5H6.75C6.55109 10.5 6.36032 10.421 6.21967 10.2803C6.07902 10.1397 6 9.94891 6 9.75C6 9.55109 6.07902 9.36032 6.21967 9.21967C6.36032 9.07902 6.55109 9 6.75 9H12C12.1989 9 12.3897 9.07902 12.5303 9.21967C12.671 9.36032 12.75 9.55109 12.75 9.75C12.75 9.94891 12.671 10.1397 12.5303 10.2803C12.3897 10.421 12.1989 10.5 12 10.5ZM20.25 19.7072L18.75 18.8484C18.6367 18.7837 18.5084 18.7496 18.3778 18.7496C18.2473 18.7496 18.119 18.7837 18.0056 18.8484L16.5056 19.7072V16.125C17.0996 16.3732 17.7369 16.5009 18.3806 16.5009C19.0243 16.5009 19.6617 16.3732 20.2556 16.125L20.25 19.7072ZM18.375 15C17.7075 15 17.055 14.8021 16.4999 14.4312C15.9449 14.0604 15.5124 13.5333 15.2569 12.9166C15.0015 12.2999 14.9346 11.6213 15.0648 10.9666C15.1951 10.3119 15.5165 9.71052 15.9885 9.23851C16.4605 8.76651 17.0619 8.44507 17.7166 8.31485C18.3713 8.18462 19.0499 8.25146 19.6666 8.50691C20.2833 8.76235 20.8104 9.19493 21.1812 9.74995C21.5521 10.305 21.75 10.9575 21.75 11.625C21.75 12.0682 21.6627 12.5071 21.4931 12.9166C21.3235 13.326 21.0749 13.6981 20.7615 14.0115C20.4481 14.3249 20.076 14.5735 19.6666 14.7431C19.2571 14.9127 18.8182 15 18.375 15Z" fill="#444444"/>
</svg>
